<svg width="15" height="15" viewBox="0 0 15 15" fill="none" xmlns="http://www.w3.org/2000/svg">
<rect width="15" height="15" fill="white"/>
<path d="M6.73117 12.2604C7.2048 11.9785 7.7949 11.979 8.26799 12.2618L10.7737 13.7594C11.3731 14.118 12.1068 13.5879 11.949 12.9175L11.291 10.1274C11.1622 9.58118 11.3491 9.00878 11.7754 8.64375L13.9763 6.75915C14.5048 6.30698 14.2208 5.44949 13.5267 5.39493L10.6147 5.15065C10.062 5.10429 9.58004 4.75678 9.36142 4.24706L8.22569 1.59857C7.9575 0.967142 7.0425 0.967142 6.7743 1.59857L5.63889 4.24032C5.42008 4.74945 4.93839 5.09646 4.38617 5.14279L1.47332 5.38713C0.779154 5.4417 0.495174 6.29918 1.02369 6.75135L3.22463 8.63595C3.65092 9.00098 3.83778 9.57338 3.70897 10.1196L3.05099 12.9097C2.89322 13.5801 3.62683 14.1102 4.22635 13.7516L6.73117 12.2604Z" fill="#F4774C"/>
</svg>
