<svg width="18" height="17" viewBox="0 0 18 17" fill="none" xmlns="http://www.w3.org/2000/svg">
<path d="M7.9749 14.8472C8.60639 14.4713 9.39319 14.472 10.024 14.849L13.3649 16.8458C14.1642 17.324 15.1424 16.6172 14.932 15.7233L14.0547 12.0032C13.883 11.2749 14.1321 10.5117 14.7005 10.025L17.6351 7.5122C18.3398 6.9093 17.9611 5.76599 17.0356 5.69324L13.1529 5.36753C12.416 5.30572 11.7734 4.84237 11.4819 4.16275L9.96759 0.631433C9.60999 -0.210478 8.38999 -0.210478 8.0324 0.631433L6.51853 4.15376C6.22678 4.8326 5.58452 5.29528 4.84823 5.35705L0.964431 5.68284C0.0388716 5.7556 -0.339768 6.8989 0.364921 7.5018L3.29951 10.0146C3.86789 10.5013 4.11704 11.2645 3.94529 11.9928L3.06799 15.7129C2.85763 16.6068 3.83578 17.3136 4.63513 16.8355L7.9749 14.8472Z" fill="#F4774C"/>
</svg>
