<svg width="109" height="9" viewBox="0 0 109 9" fill="none" xmlns="http://www.w3.org/2000/svg">
<path fill-rule="evenodd" clip-rule="evenodd" d="M85.8893 0.957399C74.2921 0.5428 66.065 0.461074 54.6068 0.646567C45.1822 0.799161 38.9319 0.988848 28.2538 1.44637C21.9748 1.71538 19.5137 1.86044 14.5105 2.25629C10.57 2.56808 8.10847 2.74352 5.77862 2.87862C2.31113 3.07973 1.08701 3.19096 1.08166 3.30546C1.07931 3.3559 1.19369 3.37354 1.29439 3.33828C1.38172 3.30769 1.8535 3.27738 4.74989 3.11631C7.17462 2.98145 8.96559 2.8656 12.5699 2.61038C20.6558 2.03786 21.4039 2.00076 33.9227 1.55181C51.6725 0.915239 66.0676 0.809385 79.86 1.21404C92.9574 1.59828 103.729 2.19395 106.477 2.68584C106.931 2.76711 106.933 2.76206 106.409 2.83474C105.187 3.00391 102.461 3.13766 97.0799 3.29241C90.9342 3.46914 87.6016 3.52876 77.6156 3.64068C70.0115 3.7259 69.8286 3.72935 59.7796 3.97866C49.2535 4.23981 44.6168 4.38467 38.3168 4.64919C36.092 4.74257 35.9049 4.74865 33.1689 4.81588C27.7247 4.94968 23.0454 5.15327 18.4461 5.45642C16.9487 5.55512 16.6765 5.6184 17.0593 5.77874C17.3675 5.90785 19.9786 5.83267 26.4657 5.50795C34.472 5.10716 35.5986 5.06556 40.1949 5.00077C46.7844 4.90789 52.2738 4.90449 56.861 4.99048C61.4572 5.07662 69.1406 5.27175 73.3 5.40797C75.623 5.48404 84.6159 5.87835 85.0631 5.92376L85.4108 5.95905L85.0845 5.97556C84.516 6.00434 74.4503 6.32121 70.0248 6.44963C68.639 6.48983 66.6385 6.54252 65.5791 6.56669C62.1255 6.6455 54.7141 6.86185 53.4062 6.92202C52.5893 6.95963 52.297 7.09996 52.6747 7.27323C52.932 7.39125 54.6911 7.48253 58.5164 7.57638C59.4271 7.59873 61.1034 7.64374 62.2415 7.67645C63.3797 7.70915 65.0813 7.74529 66.023 7.75676C66.9647 7.76823 68.3753 7.79595 69.1579 7.81838C69.9404 7.84081 70.9266 7.8669 71.3494 7.87637L72.1183 7.89358L71.4391 7.85815C70.5501 7.81176 68.4592 7.67575 66.6877 7.54909C64.6101 7.40055 60.0541 7.19952 57.9439 7.1633C57.7054 7.15919 57.6218 7.15142 57.6887 7.13956C57.8192 7.11644 63.2062 6.96179 65.7407 6.90843C73.4 6.74714 86.5009 6.32702 87.1615 6.22153C87.7474 6.12795 87.7136 5.91476 87.0913 5.77975C85.9764 5.53784 75.6069 5.08916 66.309 4.88054C65.5121 4.86264 63.6492 4.81876 62.1694 4.783C56.6039 4.64854 51.1317 4.57374 49.0643 4.60394C48.9339 4.60583 48.8428 4.6016 48.8619 4.59456C48.9384 4.56613 63.3725 4.20852 68.9705 4.09637C70.2363 4.07099 73.9018 4.02195 77.116 3.98733C88.2875 3.86707 90.8677 3.8219 97.6266 3.62822C105.972 3.38906 108.247 3.1807 107.794 2.69665C107.417 2.29363 105.163 2.01282 98.8764 1.58582C97.3726 1.48367 88.2139 1.04049 85.8893 0.957399Z" fill="#F4774C" stroke="#F4774C"/>
</svg>
