<svg width="176" height="15" viewBox="0 0 176 15" fill="none" xmlns="http://www.w3.org/2000/svg">
<path fill-rule="evenodd" clip-rule="evenodd" d="M139.489 1.45517C120.578 0.803056 107.16 0.726841 88.4706 1.16523C73.0979 1.52586 62.9021 1.92601 45.4824 2.85242C35.2391 3.39714 31.2239 3.68271 23.0603 4.44695C16.6308 5.04888 12.6145 5.38974 8.81338 5.65606C3.15623 6.05246 1.15874 6.26562 1.14901 6.47397C1.14473 6.56574 1.33113 6.59683 1.49567 6.53179C1.63837 6.47538 2.4081 6.41608 7.13345 6.09754C11.0893 5.83084 14.0114 5.60429 19.8921 5.10822C33.0851 3.99544 34.3055 3.92135 54.7272 2.99432C83.6823 1.67987 107.161 1.36049 129.653 1.97518C151.011 2.55886 168.575 3.54765 173.052 4.41835C173.791 4.56219 173.795 4.55298 172.939 4.68982C170.945 5.00836 166.498 5.27569 157.72 5.60464C147.695 5.98029 142.259 6.1181 125.971 6.40967C113.568 6.63169 113.27 6.63958 96.8778 7.18166C79.7078 7.74949 72.1442 8.05386 61.8667 8.59059C58.2374 8.78009 57.932 8.79278 53.4691 8.93919C44.5886 9.23057 36.9551 9.64217 29.4511 10.2342C27.008 10.4269 26.5634 10.5445 27.1863 10.8328C27.6878 11.065 31.9472 10.9052 42.5304 10.2573C55.5919 9.45763 57.4296 9.37203 64.9267 9.21368C75.6749 8.98666 84.628 8.93213 92.1088 9.04815C99.6044 9.16439 112.134 9.4517 118.917 9.66288C122.705 9.7808 137.368 10.419 138.097 10.4976L138.664 10.5588L138.132 10.5917C137.204 10.6491 120.785 11.3142 113.566 11.5868C111.305 11.6721 108.042 11.7856 106.314 11.8389C100.681 12.0127 88.5908 12.4716 86.4571 12.5926C85.1244 12.6682 84.6464 12.9261 85.2609 13.238C85.6795 13.4504 88.5478 13.601 94.7859 13.738C96.271 13.7707 99.0046 13.8378 100.861 13.8873C102.717 13.9367 105.492 13.9875 107.027 14.0001C108.563 14.0126 110.864 14.0507 112.14 14.0846C113.416 14.1185 115.024 14.1573 115.714 14.1708L116.967 14.1953L115.86 14.1368C114.411 14.0603 111.002 13.8312 108.113 13.6164C104.726 13.3645 97.2973 13.0389 93.8558 12.9916C93.4668 12.9862 93.3306 12.9728 93.4398 12.9506C93.6529 12.9074 102.44 12.5786 106.575 12.4592C119.068 12.0983 140.439 11.2186 141.517 11.0209C142.474 10.8455 142.42 10.4579 141.407 10.2178C139.59 9.78748 122.682 9.06256 107.519 8.76492C106.22 8.73938 103.182 8.67595 100.768 8.62394C91.6924 8.42833 82.7681 8.34046 79.3959 8.4136C79.1833 8.41819 79.0348 8.41131 79.0659 8.39833C79.191 8.34593 102.736 7.56819 111.867 7.31485C113.932 7.25753 119.91 7.13602 125.153 7.04473C143.375 6.72754 147.583 6.62263 158.608 6.21074C172.222 5.70213 175.933 5.30303 175.199 4.42641C174.588 3.69652 170.914 3.20551 160.665 2.48405C158.213 2.31145 143.279 1.58585 139.489 1.45517Z" fill="#F4774C" stroke="#F4774C"/>
</svg>
