<svg width="95" height="119" viewBox="0 0 95 119" fill="none" xmlns="http://www.w3.org/2000/svg">
<path d="M75.6906 84.8896L74.6045 83.2446L77.556 83.4218L77.4379 85.3894L75.6906 84.8896Z" fill="white"/>
<path d="M25.5344 96.3934L25.1685 92.6194L28.1632 95.3663L30.4535 96.6886L30.2547 98.3552L27.8247 97.7157L25.5344 96.3934Z" fill="white"/>
<path d="M29.0761 86.7324L26.2486 89.426L25.6839 87.3187L27.4095 86.5336L30.8608 84.9635L32.7694 86.0655L29.0761 86.7324Z" fill="white"/>
<path d="M37.3701 89.9953L35.4399 87.6085L35.8865 91.6835L34.6449 94.2748L34.5858 95.2587L36.032 95.8391L37.4134 92.565L37.3701 89.9953Z" fill="white"/>
<path d="M74.416 76.5193L73.196 80.3956L71.6475 78.2292L72.7869 74.0519L78.2648 71.616L82.2217 73.1371L82.566 75.6262L80.2757 74.3039L77.5446 73.745L74.416 76.5193Z" fill="white"/>
<path d="M83.2976 83.1743L84.7164 77.6315L82.4103 79.8628L81.8298 81.309L81.8514 82.5938L83.2976 83.1743Z" fill="white"/>
<path d="M73.9958 55.4182L69.48 56.6282L72.2659 69.4337L73.6747 72.2829L79.3947 70.7502L73.9958 55.4182Z" fill="white"/>
<path d="M55.9407 101.235L42.6354 105.768L42.2162 107.816L42.6196 109.322L44.5282 110.424L47.0979 110.38L48.1408 109.456L49.0439 109.214L55.4467 107.821L58.5753 105.046L57.93 102.638L55.9407 101.235Z" fill="white"/>
<path d="M74.1433 95.7125L60.838 100.246L60.4189 102.294L60.8222 103.799L62.7308 104.901L65.3005 104.858L66.3434 103.933L67.2466 103.691L73.6493 102.298L76.7779 99.5239L76.1326 97.1155L74.1433 95.7125Z" fill="white"/>
<path d="M26.4289 68.164L21.9131 69.374L25.3011 82.0182L26.0271 84.7277L30.6826 82.8349L26.4289 68.164Z" fill="white"/>
<path d="M49.8907 78.6557L41.5203 79.9306L44.0426 90.548L44.6879 92.9564L53.8001 90.8375L49.8907 78.6557Z" fill="white"/>
<path d="M53.7632 93.1067L45.7154 95.5857L47.3288 101.607L48.4739 102.268L55.6185 100.031L53.7632 93.1067Z" fill="white"/>
<path d="M59.4016 91.2725L68.5138 89.1536L70.1271 95.1746L69.3656 96.3467L61.2569 98.1967L59.4016 91.2725Z" fill="white"/>
<path d="M63.5574 73.0582L55.671 76.1394L58.1933 86.7569L58.8386 89.1653L67.9508 87.0463L63.5574 73.0582Z" fill="white"/>
<path d="M68.7492 55.3136L63.6938 38.6841L69.8463 37.0355L74.452 51.9871L74.3423 53.8149L68.7492 55.3136Z" fill="white"/>
<path d="M21.0569 67.4928L16.3013 51.9819L22.4537 50.3334L26.5001 65.4349L25.5314 66.2939L21.0569 67.4928Z" fill="white"/>
<path d="M33.4937 80.3466L24.4321 51.0027L62.3155 40.2524L71.1176 70.8647L33.4937 80.3466Z" fill="white"/>
<path d="M41.2603 10.2891L43.0638 14.5112L45.5725 13.839L43.1418 9.78491L41.2603 10.2891Z" fill="white"/>
<path d="M28.7178 13.6499L29.267 18.2082L26.7583 18.8804L26.8363 14.1541L28.7178 13.6499Z" fill="white"/>
<path d="M19.735 22.7791L20.6532 21.1886L47.6217 13.9625L54.0615 12.9091L60.5704 34.6921L54.6348 37.627L34.7333 43.6318L24.3624 45.0663L19.735 22.7791Z" fill="white"/>
<path d="M25.1872 43.1435C25.2423 43.0291 25.2422 43.0291 25.2125 42.9443C24.7669 41.6732 24.406 40.3723 24.0749 39.1562C23.5016 36.9781 22.9581 34.8848 22.4697 32.677L22.1 30.8083C22.1 30.8083 21.6203 29.1684 21.255 27.5836C20.805 26.0284 20.8302 23.8106 20.8048 24.0098C19.9983 21.4377 19.205 19.7175 19.4445 24.2012C19.5215 25.5065 19.2674 27.6142 19.4291 28.8898C19.5908 30.1653 19.7184 31.0722 19.7184 31.0722L20.2069 33.2799C20.6953 35.4877 21.2686 37.6657 21.8418 39.8438C22.2027 41.1447 22.5635 42.4456 23.0092 43.7168C23.0389 43.8015 23.1533 43.8566 23.1533 43.8566C24.4167 44.7459 25.0265 43.7709 25.1872 43.1435Z" fill="#F4774C"/>
<path d="M50.9538 12.4148C49.1103 12.5852 46.7034 13.0484 45.4575 13.2948C45.4828 13.0956 45.4234 12.9261 45.4488 12.7269C45.44 12.159 45.3168 11.5361 45.1385 11.0276C45.045 10.4895 44.9262 10.1505 44.9262 10.1505L44.8074 9.81146L44.5994 9.21823L44.0393 7.89204L42.6537 8.2826L41.607 8.55438C41.1536 8.61817 40.7299 8.76672 40.3359 9L39.1791 9.50065L40.066 11.7591L40.5667 12.9158C40.7449 13.4243 40.9782 13.8183 41.1565 14.3268L29.5035 17.4603C29.4738 17.3755 29.5585 17.3458 29.5288 17.2611C29.5498 16.7779 29.541 16.21 29.562 15.7269C29.4982 15.2734 29.4641 14.9048 29.4641 14.9048C29.2858 14.3963 29.1076 13.8878 28.9294 13.3793L28.662 12.6166L27.8948 12.6001C27.4117 12.5791 27.1575 12.6682 26.9032 12.7574C26.649 12.8465 26.4795 12.9059 26.255 13.0798C26.1702 13.1095 26.0305 13.2537 25.861 13.3131L25.3822 13.5761L24.5391 14.1571L25.0232 16.0809C25.142 16.4199 25.2059 16.8733 25.3247 17.2123C25.4435 17.5513 25.5921 17.975 25.7406 18.3987C25.7406 18.3987 25.7406 18.3987 25.7703 18.4835L23.7618 18.9973L19.8591 20.0799C19.7744 20.1096 19.7193 20.2241 19.7193 20.2241C18.7749 21.6019 19.75 22.2117 20.3773 22.3725C20.4917 22.4275 20.4917 22.4275 20.5765 22.3978L24.4791 21.3151L43.2892 16.3387L45.1282 15.8844C45.1282 15.8844 51.5986 13.7113 51.2299 13.7454C53.8273 12.7397 55.3187 11.8362 50.9538 12.4148ZM28.2026 17.8211C28.1729 17.7364 28.1135 17.5669 28.0838 17.4822C27.9947 17.2279 27.9055 16.9737 27.8164 16.7194C28.0794 17.1982 28.3127 17.5922 28.3127 17.5922C28.3424 17.6769 28.3424 17.677 28.4568 17.732L28.2026 17.8211ZM43.5337 13.7789C43.241 13.2154 43.033 12.6221 42.8251 12.0289L42.2947 10.7874L42.5489 10.6983L42.6381 10.9526C42.6381 10.9526 43.0452 11.5711 43.4227 12.1049C43.8001 12.6387 44.1776 13.1725 44.1776 13.1725C44.2073 13.2573 44.3515 13.3971 44.4659 13.4521L43.5337 13.7789Z" fill="#F4774C"/>
<path d="M59.672 28.5815C59.3408 27.3653 59.1285 26.4881 59.1285 26.4881L58.3858 24.3695C57.609 21.8822 56.8619 19.4796 56.2843 17.0176C56.0379 15.7717 55.7617 14.4412 55.6001 13.1656C55.5703 13.0808 55.5406 12.9961 55.4559 13.0258C54.3026 11.9075 53.4342 12.6878 53.1887 13.3448C53.1337 13.4592 53.1337 13.4593 53.1634 13.544C53.3548 14.9043 53.5462 16.2646 53.852 17.6799C54.4593 20.2267 55.1514 22.7437 56.0129 25.2013L56.6665 27.0657C56.6665 27.0657 57.3157 28.6462 57.9352 30.1419C58.5547 31.6376 59.1742 33.1333 59.1445 33.0486C59.4669 33.6968 59.6749 34.2901 59.9081 34.6841C59.5692 34.8029 59.1157 34.8667 58.6072 35.0449C56.0902 35.737 52.5562 36.7856 52.5562 36.7856L50.4673 37.613C43.7174 40.0744 36.4261 42.1079 29.3791 43.7218C28.0485 43.998 25.4803 43.6673 24.1497 43.9434C24.065 43.9731 24.01 44.0875 24.01 44.0875C23.0359 45.3806 23.9559 46.1049 24.4984 46.2953C24.6129 46.3503 24.6129 46.3504 24.6976 46.3207C26.0282 46.0445 29.2096 45.7962 30.5105 45.4353C37.6422 43.7916 44.4348 42.3922 51.3542 39.8714L53.2186 39.2178C53.2186 39.2178 53.6423 39.0693 54.2058 38.7766C54.7693 38.4839 55.5024 38.1317 56.3201 37.7499C57.8708 37.016 59.3071 36.227 59.1376 36.2864C59.7012 35.9937 60.1502 35.646 60.5442 35.4127C60.6587 35.4677 60.7434 35.438 60.684 35.2685C61.4423 34.7172 61.6922 34.3441 60.7006 34.5014C60.6368 34.048 60.628 33.4801 60.4454 32.6877C60.3388 31.2976 60.0032 29.7976 59.672 28.5815Z" fill="#F4774C"/>
<path d="M28.314 24.9196C28.6783 24.6016 29.0173 24.4827 29.4157 24.5334C29.4157 24.5334 29.4707 24.419 29.5555 24.3893C29.9748 23.9568 30.3941 23.5243 30.3304 23.0708C30.2963 22.7021 29.9486 22.2531 29.6052 22.088C29.4907 22.0329 29.4907 22.033 29.406 22.0627C28.4694 22.1055 27.5372 22.4323 26.7789 22.9836C26.0205 23.535 25.5208 24.2811 25.2203 25.0525C24.8097 26.0529 24.6875 27.3329 25.1034 28.5193C25.1925 28.7736 25.3961 29.0828 25.4852 29.3371C25.6591 29.5616 25.833 29.7861 26.0068 30.0106C26.3249 30.3749 26.8421 30.7646 27.3296 31.0695C28.1308 31.4547 29.042 31.6111 29.9489 31.4835C29.9489 31.4835 30.5719 31.3602 31.3049 31.0081C32.0379 30.656 32.8215 29.9055 33.3762 29.0449C33.5964 28.5871 33.8166 28.1293 33.9223 27.6164C34.028 27.1036 34.0489 26.6204 33.9301 26.2814C33.7474 25.489 33.3997 25.04 33.4294 25.1247C32.8781 24.3664 32.1066 24.0659 31.5937 23.9602C31.0809 23.8545 30.7122 23.8886 30.5427 23.948C30.3732 24.0074 30.5174 24.1472 30.8057 24.4268C30.9202 24.4818 31.0346 24.5368 31.0643 24.6216C31.1788 24.6766 31.3229 24.8164 31.4374 24.8715C31.696 25.0663 31.9843 25.3458 32.1329 25.7695C32.5444 26.672 31.8245 27.876 31.0662 28.4273C30.7019 28.7454 30.2782 28.8939 30.0239 28.983C29.7697 29.0722 29.6002 29.1316 29.6002 29.1316C29.1765 29.2801 28.6636 29.1744 28.3203 29.0093C28.0914 28.8992 27.8328 28.7044 27.6292 28.3951C27.485 28.2554 27.4553 28.1706 27.3408 28.1156C27.3111 28.0308 27.167 27.8911 27.222 27.7766C27.0438 27.2681 27.035 26.7002 27.2805 26.0432C27.6701 25.526 28.0047 25.1232 28.314 24.9196Z" fill="#F4774C"/>
<path d="M50.6218 20.1447C50.4777 20.0049 50.4479 19.9202 50.4479 19.9202C49.7568 19.306 49.0998 19.0605 48.5319 19.0693C48.0191 18.9636 47.6504 18.9977 47.5106 19.1418C47.3411 19.2013 47.4853 19.3411 47.7736 19.6206C48.0025 19.7307 48.2314 19.8407 48.49 20.0356C48.7486 20.2304 49.1217 20.4803 49.355 20.8743C49.5289 21.0988 49.5883 21.2683 49.5926 21.5522C49.5673 21.7514 49.5717 22.0354 49.4617 22.2643C49.3263 22.6924 48.9069 23.1249 48.5426 23.4429C48.1783 23.761 47.7546 23.9095 47.53 24.0834C47.2758 24.1725 47.1063 24.2319 47.1063 24.2319C46.5978 24.4102 46.1147 24.3892 45.7163 24.3385C45.1737 24.1481 44.7115 23.644 44.4739 22.9661C44.355 22.6271 44.2659 22.3728 44.3463 22.0592C44.3419 21.7752 44.452 21.5464 44.6171 21.203C45.0321 20.4866 46.0743 19.9309 47.1804 19.8286C47.2651 19.7989 47.3202 19.6844 47.3202 19.6844C47.7946 19.1375 47.985 18.5949 47.8662 18.2559C47.7473 17.9169 47.3446 17.5823 47.0012 17.4172C46.8867 17.3622 46.8867 17.3622 46.802 17.3919C45.9799 17.4898 45.2172 17.7572 44.5139 18.194C43.7809 18.5462 43.137 19.1525 42.5525 19.9284C42.1926 20.5303 41.9471 21.1873 41.9009 21.8697C41.8546 22.552 42.0075 23.2597 42.2154 23.8529C42.5082 24.4164 42.7161 25.0097 43.1783 25.5138C43.6405 26.0179 44.1874 26.4922 44.9292 26.708C45.7854 26.9788 46.722 26.9359 47.5144 26.7533C47.5144 26.7533 48.0229 26.5751 48.7559 26.223C49.3744 25.8158 50.1878 25.15 50.7128 24.2047C51.2676 23.3441 51.5043 22.1192 51.1225 21.3015C50.9695 20.5938 50.7957 20.3692 50.6218 20.1447Z" fill="#F4774C"/>
<path d="M55.0402 33.6323L54.951 33.6431C54.6923 33.7478 54.4248 33.7801 54.1574 33.8124C53.8183 34.0002 51.1461 33.0551 49.9242 33.423C47.4804 34.1589 44.0868 34.7282 44.0868 34.7282L41.8754 35.1422L34.7065 36.4491L30.2995 38.5443C30.2103 38.5551 30.1124 38.4935 30.1124 38.4935C29.6316 38.2579 29.832 38.7776 29.7971 38.4881C26.6767 38.8652 29.4405 38.5312 28.4598 38.6497C28.451 38.5773 28.451 38.5773 28.4423 38.505C28.4248 38.3602 28.4073 38.2155 28.3811 37.9984C28.3373 37.6365 28.2045 37.2855 28.2045 37.2855C28.2045 37.2855 28.5086 36.8082 28.5978 36.7974C28.6782 36.7143 28.8477 36.6203 29.0173 36.5264C28.8757 36.103 29.2777 35.6873 29.5189 35.4379C29.5993 35.3548 29.5993 35.3547 29.6885 35.344L34.0955 33.2488L41.7103 31.8881L43.5737 31.5894C43.5737 31.5894 50.3406 30.6983 49.9927 30.8137C50.5277 30.7491 52.3445 31.5351 52.7011 31.492C52.7727 31.3365 51.3378 31.7578 51.3378 31.7578C51.579 31.5084 53.6118 30.7946 54.1904 31.0918C54.5733 31.2658 54.8845 31.5953 54.8845 31.5953C54.8845 31.5953 54.9457 32.1018 54.9982 32.536C55.0244 32.7531 55.0402 33.6323 55.0769 33.1874C55.0315 33.56 55.0402 33.6323 55.0402 33.6323ZM52.6216 32.0825C52.3628 32.1872 50.5697 31.8454 50.2218 31.9608C47.0694 32.1545 43.6752 32.7774 43.6752 32.7774L35.437 34.9289L32.6643 36.051L30.2717 36.5142C30.9849 36.428 42.0929 31.4375 49.7546 31.7038C50.9738 31.7462 52.493 31.9643 52.7692 32.0043C52.7517 31.8596 52.6218 32.5617 52.6043 32.417C52.5781 32.1999 52.639 32.2273 52.6216 32.0825Z" fill="#F4774C"/>
<path d="M54.8356 59.1676C54.7413 59.625 54.5224 60.2109 54.3035 60.7969C54.0846 61.3828 53.7636 61.9197 53.4426 62.4565L52.6308 64.014C52.4836 64.3203 52.3098 64.5509 52.1626 64.8571C52.0909 65.1368 51.9172 65.3674 51.8455 65.6472L51.3095 67.0232L51.1887 67.4049L51.1662 67.5826L51.1171 67.6846L52.0731 67.2646C53.3314 66.7387 54.5897 66.2127 55.8744 65.7623L56.4035 65.5768L56.8569 65.4179L57.7903 65.1755C58.395 64.9636 59.026 64.8272 59.5816 64.7173L59.8083 64.6378L60.035 64.5583L60.2883 64.5544L61.2747 64.4632L61.7546 64.3798L62.0078 64.376L62.159 64.323L62.2345 64.2965C62.2345 64.2965 62.2345 64.2965 62.208 64.2209L61.9657 63.2875L61.7233 62.3541L61.587 61.723L61.4202 60.7631C61.1474 59.5009 60.9503 58.2122 60.7531 56.9235C60.5559 55.6348 60.2567 54.297 59.7798 52.9366C59.5413 52.2564 59.3294 51.6518 58.9888 50.9226C58.8829 50.6203 58.7013 50.3445 58.5198 50.0687L58.2852 49.6417L58.1302 49.4415L58.1037 49.3659C58.1037 49.3659 58.1037 49.3659 58.0281 49.3924L57.8769 49.4454L56.2369 49.8506L48.592 51.7668L44.7828 52.7628C43.445 53.062 42.2849 53.3838 41.0227 53.6566C39.7605 53.9293 38.4227 54.2286 37.0624 54.7055C36.7601 54.8114 36.3821 54.9439 36.1063 55.1254C35.8796 55.2049 35.5773 55.3109 35.275 55.4169C34.9727 55.5228 34.5192 55.6818 34.0432 56.0184C33.5672 56.355 33.2727 56.9674 33.1784 57.4248C32.9143 58.366 33.1037 59.1483 33.191 59.8815C33.3539 60.5881 33.5923 61.2683 33.7287 61.8994L34.0466 62.8063C34.1261 63.0331 34.1565 63.3619 34.2625 63.6642L34.7737 65.6066C35.0955 66.7667 35.4438 68.0024 35.8412 69.136C35.8677 69.2116 35.9698 69.2607 35.9698 69.2607C36.5066 69.5817 36.8355 69.5513 37.1378 69.4453C36.8129 69.7289 37.4479 69.8458 39.5453 69.5348C40.6829 69.3906 42.0471 69.167 43.1847 69.0228C43.4379 69.0189 43.7402 68.9129 43.9178 68.9355C44.171 68.9315 44.3222 68.8786 44.4734 68.8256C44.8022 68.7952 45.0289 68.7157 45.0289 68.7157C45.4333 68.6588 45.9132 68.5754 46.3667 68.4164C46.5934 68.337 46.8466 68.3331 47.0733 68.2536C47.3756 68.1476 47.678 68.0416 48.0558 67.9091C48.207 67.8561 48.4072 67.7011 48.5583 67.6481C48.7095 67.5951 48.9589 67.338 49.0835 67.2094C49.6312 66.5931 49.9257 65.9807 50.1711 65.4703L50.4656 64.8579C50.5638 64.6538 50.6128 64.5517 50.7601 64.2455L51.3491 63.0207C51.7417 62.2041 52.1609 61.4631 52.58 60.7221C52.9992 59.9812 53.5204 59.2893 54.019 58.775C54.2683 58.5179 54.5441 58.3363 54.7709 58.2568C54.8464 58.2304 54.922 58.2039 54.922 58.2039C54.922 58.2039 54.922 58.2039 54.9976 58.1774L55.0997 58.2264C55.0997 58.2264 55.0997 58.2265 55.1262 58.302C54.9299 58.7103 54.9072 58.8879 54.8356 59.1676ZM56.7584 57.3903C56.5769 57.1145 56.3953 56.8387 56.0891 56.6915C55.7564 56.4687 55.3746 56.3479 54.9438 56.3292C54.5129 56.3105 54.1085 56.3674 53.8062 56.4734C53.1261 56.7119 52.6765 57.124 52.3025 57.5097C51.5546 58.2811 51.0598 59.0486 50.516 59.9182C50.0478 60.7612 49.6551 61.5778 49.2625 62.3943L48.6735 63.6192C48.6244 63.7212 48.4772 64.0275 48.379 64.2316L48.0845 64.844C47.8882 65.2523 47.6163 65.6871 47.4426 65.9177C47.3179 66.0463 47.3179 66.0463 47.1177 66.2013C46.9665 66.2543 46.7663 66.4094 46.6151 66.4623C46.5395 66.4888 46.3884 66.5418 46.3128 66.5683L46.2372 66.5948L46.0861 66.6478L45.8594 66.7273C45.4815 66.8598 45.1527 66.8901 44.7483 66.947C44.7483 66.947 44.3705 67.0795 43.8149 67.1894C43.2103 67.4014 42.5301 67.6398 41.8234 67.8027C40.4631 68.2796 39.0271 68.783 39.1783 68.73C38.4225 68.9949 37.8444 69.2824 37.4175 69.5169C37.5912 69.2863 37.6894 69.0822 37.7611 68.8025C37.8101 68.7004 37.8101 68.7004 37.7836 68.6248C37.4127 67.5668 37.0909 66.4067 36.7955 65.3221L36.3108 63.4553C36.2049 63.153 36.1745 62.8242 36.042 62.4463L35.6976 61.4638C35.4856 60.8592 35.2736 60.2546 35.1637 59.6991C35.0539 59.1435 35.0196 58.5616 35.0912 58.2818C35.1138 58.1042 35.1894 58.0776 35.2385 57.9756C35.3141 57.9491 35.5143 57.7941 35.741 57.7146C36.0433 57.6086 36.3457 57.5026 36.7235 57.3701C37.0258 57.2642 37.3016 57.0826 37.5284 57.0032C38.662 56.6057 39.9242 56.333 41.1864 56.0602C42.4486 55.7875 43.8354 55.3861 45.0221 55.1399L48.8313 54.144L56.4006 52.2542L56.6273 52.1748C56.8884 52.6773 57.1003 53.2819 57.3123 53.8865C57.7097 55.0202 57.9824 56.2824 58.1796 57.571C58.4523 58.8332 58.6495 60.122 58.8732 61.4862L59.0665 62.5217L59.1724 62.824L58.8437 62.8544C58.137 63.0173 57.5058 63.1537 56.7992 63.3165C56.4969 63.4225 56.1946 63.5285 55.7902 63.5854L54.8833 63.9033L54.9815 63.6992C55.2759 63.0867 55.5969 62.5499 55.8649 61.8619C56.1594 61.2495 56.4274 60.5615 56.5669 59.7488C56.6876 59.3671 56.7063 58.9362 56.5964 58.3807C56.9704 57.995 56.8644 57.6927 56.7584 57.3903Z" fill="#F4774C"/>
<path d="M82.927 72.4872C82.3372 72.0151 81.7739 71.6185 81.1614 71.324C80.8552 71.1768 80.549 71.0295 80.1937 70.9843C80.1407 70.8332 79.9366 70.735 79.5548 70.6143C78.8933 70.4218 78.0316 70.3845 78.0316 70.3845C78.0316 70.3845 76.7694 70.6572 75.5337 71.0056C74.9026 71.1419 74.298 71.3539 73.818 71.4373C73.7424 71.4638 73.5913 71.5168 73.5157 71.5433C73.4627 71.3921 73.5118 71.2901 73.4588 71.1389C73.1704 68.8638 72.5376 65.6062 72.5376 65.6062L72.0265 63.6638L71.0609 60.1834C70.7921 59.1745 70.4477 58.192 70.2053 57.2586C71.5922 56.8573 73.6857 56.2931 73.6857 56.2931C73.6857 56.2931 73.7613 56.2666 73.9125 56.2136L74.8515 59.6184L75.2528 61.0053L75.7336 62.6188C75.7336 62.6188 77.6715 68.3891 77.6676 68.1359C78.538 70.3767 79.5243 72.1587 78.9328 68.2926C78.6444 66.0176 77.9331 62.357 77.9331 62.357L77.4219 60.4146L77.0206 59.0277L76.0551 55.5473C76.0286 55.4717 75.9265 55.4227 75.9265 55.4227C75.7224 55.3245 75.5938 55.1998 75.3897 55.1017C75.5369 54.7955 75.4309 54.4932 74.7204 54.4028C74.7959 54.3763 74.7959 54.3763 74.7694 54.3007C75.219 53.8886 75.4644 53.3782 74.4476 53.1406C73.7861 52.9482 73.0264 52.9599 73.0264 52.9599C73.0264 52.9599 69.3193 54.0049 68.5371 54.1943C68.5067 53.8655 68.4988 53.359 68.3889 52.8035C68.0741 50.4529 67.3657 47.2218 67.3657 47.2218L66.7789 45.3059L65.7114 41.7764C65.4425 40.7674 65.1246 39.8605 64.8557 38.8515C66.167 38.4767 68.5629 37.8065 68.5629 37.8065C68.5629 37.8065 68.8387 37.625 69.1145 37.4435L70.027 40.7727L70.8296 43.5464L71.3104 45.16C71.3104 45.16 73.2484 50.9303 73.2445 50.677C74.1149 52.9178 75.0227 54.2969 74.4311 50.4308C74.1428 48.1557 73.51 44.8981 73.51 44.8981L72.9987 42.9557L72.2717 40.1555L71.3062 36.6751C71.2797 36.5995 71.1776 36.5505 71.1776 36.5505C70.8449 36.3276 70.5387 36.1804 70.2855 36.1843C70.2325 36.0331 70.0018 35.8594 69.6466 35.8142C68.9851 35.6218 68.2254 35.6335 68.2254 35.6335C68.2254 35.6335 63.6605 36.8944 63.5849 36.9209C63.5849 36.9209 63.6114 36.9964 63.5358 37.0229C63.5397 37.2761 63.5436 37.5294 63.6231 37.7561C63.1431 37.8395 62.8712 38.2743 62.7505 38.6561C62.7014 38.7581 62.7014 38.7581 62.7279 38.8337C62.8604 39.2116 62.8907 39.5404 63.0232 39.9182C62.2596 39.6767 61.814 40.3421 61.7198 40.7995C61.6707 40.9016 61.6707 40.9016 61.6972 40.9772L62.6627 44.4576L67.6266 62.4906L68.1074 64.1042C68.1074 64.1042 70.0453 69.8745 70.0414 69.6213C70.2269 70.1503 70.4614 70.5772 70.5939 70.9551C70.163 70.9364 69.6831 71.0198 68.9499 71.1071C66.6483 71.3199 63.3642 71.8771 63.3642 71.8771L51.0033 75.1072C48.7321 75.6488 46.4118 76.2925 44.1141 76.7585L42.372 77.1146C41.7409 77.251 41.2118 77.4365 40.5807 77.5729C39.4206 77.8947 38.2605 78.2165 37.1759 78.5119C36.0158 78.8337 34.9048 79.0535 33.7672 79.1976C33.6917 79.2241 33.6426 79.3262 33.6426 79.3262C33.2686 79.7119 33.1213 80.0181 33.1517 80.3469C33.1704 79.916 33.0606 79.3605 32.9468 78.5518C32.6584 76.2767 32.0256 73.0191 32.0256 73.0191L31.5144 71.0767L26.8988 54.2794L26.1188 51.328L28.5902 50.6314C30.8349 50.0142 33.0531 49.3214 35.2977 48.7042C36.3823 48.4089 37.5424 48.087 38.6535 47.8673C39.7645 47.6475 40.9512 47.4013 42.1113 47.0794C44.3825 46.5378 46.7027 45.8942 48.9209 45.2014L52.2993 44.1869L54.5174 43.4941C54.5174 43.4941 60.1817 41.2538 59.8794 41.3598C62.0937 40.4138 63.4463 39.4305 59.5576 40.1997C57.2335 40.5901 54.0289 41.374 54.0289 41.374L51.9618 42.0138L48.5835 43.0284C46.2897 43.7476 44.045 44.3648 41.7738 44.9064C40.6137 45.2283 39.5026 45.448 38.316 45.6943C37.1294 45.9406 35.9693 46.2624 34.8091 46.5842C32.4889 47.2279 30.1686 47.8715 27.9504 48.5643L24.5456 49.5033C24.47 49.5298 24.4209 49.6319 24.4209 49.6319C24.0734 50.0931 24.0283 50.4484 24.1343 50.7507L23.9979 50.1196C23.9714 50.0441 23.8693 49.995 23.8693 49.995C23.8693 49.995 23.8428 49.9194 23.7673 49.9459C23.8163 49.8438 23.8654 49.7417 23.9145 49.6397C23.9106 49.3864 23.68 49.2127 23.147 49.145C22.4855 48.9525 21.5482 48.9417 21.5482 48.9417C20.6904 49.1575 19.757 49.3999 18.8991 49.6157C18.4457 49.7747 18.0413 49.8316 17.5879 49.9906C17.3612 50.07 17.1344 50.1495 16.9077 50.229C16.7565 50.282 16.681 50.3085 16.5298 50.3615C16.4542 50.388 16.3787 50.4145 16.3031 50.441C16.2275 50.4675 16.2275 50.4674 16.1029 50.596C16.0273 50.6225 15.9782 50.7246 15.9782 50.7246C15.778 50.8796 15.6307 51.1858 15.6346 51.4391L15.612 51.6167L15.665 51.7679C15.6915 51.8434 15.718 51.919 15.7445 51.9946C15.771 52.0702 15.771 52.0702 15.7975 52.1457C15.824 52.2213 15.926 52.2704 15.9525 52.346C16.0546 52.3951 16.0811 52.4706 16.1567 52.4441L17.0692 55.7734L17.8757 58.8003L18.3565 60.4139C18.3565 60.4139 20.2945 66.1842 20.2906 65.9309C20.7371 66.9625 21.1041 67.7674 21.3612 68.0167C21.4142 68.1678 21.4407 68.2434 21.4937 68.3946C21.4937 68.3946 21.5202 68.4701 21.4446 68.4966C21.475 68.8254 21.5319 69.2298 21.6114 69.4565C21.26 69.6646 21.1127 69.9708 21.0411 70.2505C20.992 70.3526 20.992 70.3526 21.0185 70.4282L21.984 73.9085L22.4383 75.4466L22.9191 77.0601C22.9191 77.0601 24.8571 82.8304 24.8532 82.5772C25.0916 83.2573 25.3791 83.8354 25.6137 84.2624L25.6402 84.338C25.5989 84.9465 25.7579 85.4 25.8904 85.7778C25.7657 85.9064 25.6901 85.9329 25.5655 86.0615C25.1424 86.5492 24.8214 87.0861 24.5004 87.6229C24.2815 88.2088 24.0361 88.7192 23.9192 89.3542C23.6591 90.5487 23.5765 91.7657 23.7207 92.9032L23.755 93.4852C23.808 93.6364 23.7854 93.814 23.8384 93.9652L23.9218 94.4452L24.0808 94.8986C24.0808 94.8986 24.1073 94.9742 24.1867 95.2009C24.2397 95.3521 24.3457 95.6544 24.5272 95.9302C24.8148 96.5083 25.4085 97.2336 26.1004 97.7549C26.7923 98.2761 27.5824 98.5932 28.1418 98.7365C28.7013 98.8798 29.0566 98.925 29.0301 98.8494C30.3492 98.981 31.3581 98.7122 31.5584 98.5572C31.6339 98.5307 31.6075 98.4551 31.581 98.3795C31.8568 98.1979 32.1061 97.9408 32.1778 97.6611C32.2268 97.559 32.2268 97.559 32.2003 97.4835L32.0601 96.5991L32.0031 96.1947L31.9463 95.7904L31.806 94.9061L30.8687 94.8952C30.691 94.8726 30.5399 94.9256 30.4378 94.8765L30.2601 94.8539C30.056 94.7558 29.8784 94.7332 29.6742 94.635C29.2395 94.3631 28.7517 93.94 28.4151 93.464C28.26 93.2637 28.154 92.9615 28.0745 92.7347L27.9156 92.2813L27.8587 91.8769C27.7145 90.7394 28.2053 89.7186 29.1309 88.9699C29.607 88.6332 30.1851 88.3457 30.7141 88.1603C31.3187 87.9483 31.8251 87.9405 32.3581 88.0083C32.891 88.076 33.3258 88.3479 33.7115 88.7219C34.0972 89.0959 34.4338 89.5719 34.5437 90.1275C34.9146 91.1855 34.783 92.5046 34.0615 93.3516L34.0124 93.4537L33.9369 93.4802L33.8878 93.5822L33.5138 93.9679L33.1399 94.3536L33.0908 94.4557L33.0152 94.4822L33.0417 94.5577L33.1967 94.7579C33.3783 95.0338 33.5863 95.3852 33.7679 95.661L34.1575 96.2882C34.5471 96.9154 34.9367 97.5426 35.3263 98.1697L35.6629 98.6458L35.7385 98.6193L35.7875 98.5172L35.9613 98.2866C36.2106 98.0295 36.4599 97.7723 36.6827 97.4396L37.4042 96.5927C37.4533 96.4906 37.5288 96.4641 37.5779 96.362L37.6761 96.1579L37.8498 95.9273C38.0727 95.5946 38.2955 95.2619 38.4918 94.8536C38.8354 94.1391 39.126 93.2735 39.2654 92.4608C39.5178 90.7599 39.1351 88.9422 38.2009 87.4875C37.0812 85.5039 35.1075 83.9893 32.8207 83.5181C33.0436 83.1854 32.9376 82.883 32.2005 82.7171C31.9208 82.6455 31.5655 82.6003 31.3123 82.6042C31.4634 82.5512 31.4517 81.7915 31.2241 80.174C30.9357 77.8989 30.303 74.6414 30.303 74.6414L29.7918 72.699L29.4964 71.6144L28.5309 68.134C28.5044 68.0584 28.4023 68.0093 28.4023 68.0093C28.1717 67.8356 27.9676 67.7375 27.7899 67.7149C27.7369 67.5637 27.5819 67.3635 27.1245 67.2692C27.4759 67.0612 28.3563 66.6677 28.3563 66.6677C28.4319 66.6412 28.4319 66.6412 28.481 66.5391L29.8213 71.3308L30.3021 72.9444C30.3021 72.9444 32.2401 78.7146 32.2362 78.4614C32.9211 80.1732 33.5982 81.3785 33.5787 80.1124C33.6052 80.188 33.6317 80.2635 33.6582 80.3391C33.7906 80.717 34.1234 80.9398 34.4031 81.0115C34.5052 81.0606 34.5051 81.0606 34.5807 81.0341C35.7938 80.8634 37.056 80.5906 38.2162 80.2688C39.074 80.0529 39.9053 79.7615 40.7632 79.5456C40.718 79.9009 40.7749 80.3053 40.8544 80.532C40.5521 80.638 40.3783 80.8686 40.2536 80.9972C40.1781 81.0237 40.1781 81.0237 40.2046 81.0993C40.2576 81.2505 42.847 89.8474 42.847 89.8474C42.847 89.8474 44.001 92.4131 44.0236 92.2354C44.1787 92.4357 44.2846 92.738 44.4132 92.8626C44.3758 93.7244 44.739 94.276 44.9961 94.5253L45.0226 94.6009C45.0265 94.8541 45.0795 95.0052 45.1325 95.1564C44.7772 95.1112 44.5504 95.1907 44.4258 95.3193C44.3502 95.3458 44.3502 95.3458 44.3767 95.4213C44.3806 95.6746 44.5778 96.9632 44.9526 98.2745C45.2519 99.6123 45.6002 100.848 45.6002 100.848C45.6002 100.848 46.3568 102.28 46.4059 102.178C46.4059 102.178 46.4059 102.178 46.4324 102.254C45.7257 102.416 44.97 102.681 44.2407 103.022C43.587 103.336 42.8577 103.676 42.2079 104.244C42.0833 104.372 41.883 104.527 41.7849 104.731L41.5356 104.989L41.3883 105.295C41.192 105.703 41.0221 106.187 41.0035 106.618C40.8905 107.506 41.1064 108.364 41.3978 109.195C41.7648 110 42.283 110.752 43.1261 111.22C43.4588 111.443 43.9426 111.613 44.3735 111.631C44.9064 111.699 45.2843 111.567 45.6131 111.536C46.3198 111.373 46.8979 111.086 47.4269 110.9C47.5025 110.874 47.5516 110.772 47.5516 110.772C47.8235 110.337 47.8686 109.982 47.7627 109.68C47.8647 109.729 47.9403 109.702 48.118 109.725C48.5224 109.668 49.0779 109.558 50.0642 109.467C51.2018 109.323 52.5925 109.174 53.7036 108.955C54.8411 108.81 55.6725 108.519 55.6725 108.519C56.0503 108.387 56.3527 108.281 56.7041 108.073L57.2066 107.812L57.5089 107.706L57.6601 107.653L57.8603 107.498C58.4875 107.108 59.2658 106.665 59.8361 105.871C60.0099 105.641 60.1306 105.259 60.2023 104.979L60.2288 105.055C60.4594 105.229 60.588 105.353 60.8186 105.527C61.0228 105.625 61.2269 105.723 61.431 105.821C62.1946 106.063 62.9543 106.051 63.5363 106.017C64.1939 105.956 64.8515 105.895 65.407 105.785C65.4826 105.759 65.5317 105.657 65.5317 105.657C65.9547 105.169 66.0755 104.787 65.9695 104.485C66.0451 104.458 66.1471 104.508 66.2983 104.455C66.7027 104.398 67.2582 104.288 68.1916 104.045C69.3292 103.901 70.7199 103.753 71.831 103.533C72.942 103.314 73.7733 103.022 73.7733 103.022C74.1512 102.89 74.5026 102.682 74.8049 102.576C74.956 102.523 75.1563 102.368 75.3074 102.315L75.5833 102.133C75.6588 102.107 75.6589 102.107 75.7344 102.08L75.9347 101.925C76.4863 101.562 77.2116 100.968 77.6043 100.152C77.9969 99.3351 78.0834 98.3713 77.7655 97.4644C77.6065 97.011 77.3984 96.6596 77.1904 96.3082C76.9068 95.9833 76.6987 95.6319 76.366 95.4091C75.7497 94.8614 74.782 94.5217 73.9468 94.5599C73.1115 94.5982 72.4048 94.761 71.8002 94.973C71.4979 95.0789 71.1691 95.1094 70.8668 95.2153C70.9915 95.0868 71.0141 94.9091 71.0857 94.6294C71.2026 93.9944 71.0132 93.2122 71.0132 93.2122C71.0132 93.2122 70.9073 92.9098 70.6992 92.5585C70.4912 92.2071 70.2792 91.6025 70.0182 91.0999C69.8327 90.5709 69.5717 90.0683 69.5148 89.664C69.3823 89.2861 69.3784 89.0329 69.3519 88.9573C69.3519 88.9573 69.2763 88.9838 69.2498 88.9082C68.6413 88.8669 68.0858 88.9768 67.7344 89.1849C67.6058 89.0602 67.3261 88.9886 66.9708 88.9434C66.2338 88.7775 65.2209 88.7931 65.2209 88.7931C65.2209 88.7931 64.8165 88.85 64.2875 89.0354C63.7319 89.1453 62.9497 89.3347 62.1674 89.5241C61.3852 89.7134 60.5539 90.0048 59.9492 90.2168C59.8737 90.2433 59.7981 90.2698 59.7225 90.2963C59.696 90.2207 59.6695 90.1451 59.5939 90.1716L59.5674 90.096C61.181 89.6152 65.9236 88.377 65.9236 88.377C65.9236 88.377 67.8847 87.4349 67.8091 87.4614C68.5875 87.0188 68.9576 86.3799 67.4873 86.3013C66.5991 86.1883 65.435 86.257 65.435 86.257C65.435 86.257 61.3991 87.3324 59.4832 87.9191C58.9455 85.9012 57.041 79.0159 57.041 79.0159C57.041 79.0159 56.3296 77.2286 56.0421 76.6505C57.6557 76.1697 62.0695 74.9619 62.0695 74.9619C62.0695 74.9619 62.7231 74.6478 63.2257 74.3868C63.3051 74.6135 63.4376 74.9914 63.5966 75.4449C63.888 76.2762 64.1834 77.3607 64.4787 78.4453C64.7741 79.5298 65.0959 80.69 65.3117 81.5478C65.5276 82.4056 65.713 82.9347 65.713 82.9347C65.713 82.9347 65.766 83.0858 65.9476 83.3616C66.0271 83.5884 66.2351 83.9398 66.4167 84.2156C66.7307 84.8693 67.4984 86.3019 67.4984 86.3019C67.835 86.7779 67.9389 86.4162 68.0901 86.3632C68.3433 86.3593 68.4168 85.8057 68.2765 84.9214C68.1666 84.3659 68.1058 83.7083 68.0224 83.2283C67.939 82.7484 67.8822 82.344 67.8822 82.344C67.8822 82.344 67.6967 81.815 67.4809 80.9571C67.265 80.0993 66.9697 79.0147 66.6478 77.8546C66.326 76.6945 66.0042 75.5343 65.6862 74.6274C65.3683 73.7205 65.0807 73.1424 65.0807 73.1424C65.5342 72.9834 66.0632 72.798 66.6188 72.6881C68.0056 72.2868 69.366 71.8099 69.2904 71.8364C70.0462 71.5715 70.6508 71.3595 71.0778 71.125C71.3879 71.5254 71.5655 71.548 71.5538 70.7884L71.5273 70.7128C71.4704 70.3084 71.4626 69.802 71.3488 68.9932C71.2085 68.1089 71.0417 67.149 70.9015 66.2647C71.4313 67.7762 72.548 71.2036 72.5706 71.026C72.756 71.555 72.9906 71.982 73.123 72.3598C72.6735 72.772 72.2504 73.2598 71.903 73.721C71.0607 74.9498 70.6533 76.4504 70.7259 77.8677C70.6807 78.223 70.7376 78.6274 70.8436 78.9297L70.9004 79.334C70.9269 79.4096 70.9269 79.4096 70.9534 79.4852L71.0633 80.0407L71.2488 80.5697L71.4342 81.0988C71.4342 81.0988 71.4607 81.1744 71.6158 81.3746C71.6688 81.5258 71.8503 81.8015 72.0054 82.0018C72.3685 82.5534 72.8602 83.2297 73.5521 83.7509C74.8112 84.9219 76.3384 85.4049 76.2098 85.2802C77.4572 85.6916 78.5948 85.5474 78.795 85.3923C78.8706 85.3659 78.8441 85.2902 78.7155 85.1656C79.1955 85.0822 79.4674 84.6475 79.5881 84.2657C79.6372 84.1636 79.6372 84.1636 79.6107 84.088L78.9405 81.6922L78.861 81.4654L78.8345 81.3899L78.759 81.4164L78.3281 81.3977C78.0749 81.4016 77.7461 81.432 77.4173 81.4624L77.164 81.4663C77.0885 81.4928 77.062 81.4172 76.9864 81.4437C76.8844 81.3946 76.8088 81.4211 76.7067 81.372C76.3249 81.2513 76.0187 81.1041 75.8107 80.7527C75.6026 80.4013 75.4701 80.0234 75.3868 79.5434C75.2955 78.557 75.6087 77.5138 76.077 76.6707C76.6208 75.8012 77.4217 75.181 78.2795 74.9651C78.3551 74.9386 78.5063 74.8856 78.6083 74.9347C78.6839 74.9082 78.8616 74.9307 78.9371 74.9042C79.1148 74.9268 79.368 74.923 79.5721 75.0211C80.0295 75.1154 80.4643 75.3873 80.8235 75.6857C81.5419 76.2825 82.0375 77.212 81.9736 77.9981C81.9775 78.2513 81.9019 78.2778 81.8793 78.4555C81.8303 78.5575 81.7056 78.6861 81.4563 78.9433C81.2825 79.1739 80.8821 79.484 80.6366 79.9943C80.565 80.2741 80.4668 80.4782 80.3952 80.7579C80.3235 81.0376 80.3274 81.2909 80.4069 81.5176C80.4903 81.9975 80.6227 82.3754 80.8308 82.7268C80.9103 82.9535 81.3264 83.6563 81.7121 84.0303L82.2793 84.6801L82.5629 85.0049L82.5894 85.0805L82.6385 84.9785L82.8387 84.8234L83.4885 84.2561C83.6888 84.1011 83.9381 83.844 84.1118 83.6133C84.6104 83.0991 84.7086 82.8949 84.9579 82.6378C85.1051 82.3316 85.328 81.9989 85.4752 81.6927C85.8453 81.0538 86.0112 80.3167 86.1016 79.6061C86.1919 78.8955 86.1802 78.1358 86.1194 77.4782C86.0321 76.7451 85.8692 76.0384 85.5817 75.4603C84.8594 74.6103 84.0046 73.3824 82.927 72.4872ZM36.1799 89.469C36.0474 89.0911 35.8884 88.6377 35.6804 88.2863C35.8355 88.4865 35.8884 88.6377 36.0435 88.8379C36.6941 89.9676 36.9404 91.1543 36.7823 92.3978C36.6654 93.0328 36.5221 93.5922 36.2011 94.1291C36.0538 94.4353 35.8801 94.6659 35.7329 94.9721L35.5591 95.2027L35.3511 94.8514L35.4757 94.7228C36.5408 93.1614 36.6872 91.1582 36.1799 89.469ZM29.2294 96.9974L29.5091 97.069L29.5356 97.1447L29.7515 98.0025C29.5474 97.9043 29.2941 97.9082 29.09 97.81C28.6062 97.6402 28.0958 97.3948 27.6345 97.0473C27.1732 96.6998 26.7876 96.3259 26.5795 95.9745C26.2959 95.6496 26.1634 95.2717 26.0574 94.9694C25.9515 94.6671 25.8985 94.5159 25.8985 94.5159C25.766 94.1381 25.6336 93.7602 25.5767 93.3558L25.6297 93.507C25.7886 93.9604 26.0231 94.3874 26.2312 94.7388C26.7493 95.4906 27.3922 96.1139 28.1596 96.6087C28.4393 96.6803 28.8476 96.8766 29.2294 96.9974ZM31.5898 85.8166C31.3365 85.8205 31.1589 85.7979 30.9057 85.8018L30.2481 85.8626C30.0214 85.9421 29.8702 85.9951 29.617 85.999C28.7857 86.2904 28.0564 86.6309 27.331 87.2247C26.855 87.5613 26.4319 88.049 26.0845 88.5103C26.2317 88.2041 26.4055 87.9734 26.5792 87.7428C27.1004 87.0509 27.8257 86.4572 28.7326 86.1392C29.6396 85.8213 30.5995 85.6545 31.4877 85.7675C31.5142 85.8431 31.5898 85.8166 31.5898 85.8166ZM29.7126 80.7039C30.1856 81.811 30.6056 82.767 30.8097 82.8652C30.4545 82.82 30.3033 82.873 30.3033 82.873C30.3033 82.873 27.2008 83.7061 25.8895 84.0809C25.8326 83.6765 25.7983 83.0945 25.711 82.3613C25.4226 80.0862 24.7898 76.8287 24.7898 76.8287L24.2786 74.8863L23.8243 73.3483L22.9648 70.1702C24.2005 69.8218 25.9917 69.3636 25.9917 69.3636C25.9917 69.3636 26.0673 69.3371 26.1919 69.2086L27.0515 72.3867L27.3468 73.4712L27.8276 75.0848C27.7785 75.1869 29.7165 80.9571 29.7126 80.7039ZM22.6166 54.1681L23.3437 56.9683L23.7489 58.6084C23.7489 58.6084 24.2523 60.0444 24.6801 61.5068C25.1835 62.9427 25.6604 64.3031 25.6074 64.152C25.7929 64.681 26.0274 65.108 26.1598 65.4858C26.0843 65.5123 25.9822 65.4632 25.9822 65.4632C25.9822 65.4632 24.72 65.736 23.3822 66.0352C22.7511 66.1716 22.0445 66.3345 21.591 66.4934C21.4398 66.5464 21.2887 66.5994 21.1376 66.6524C21.1337 66.3992 21.0542 66.1724 21.0238 65.8436C20.7354 63.5686 20.1026 60.311 20.1026 60.311L19.5914 58.3686L18.7848 55.3417L17.9253 52.1635C18.3032 52.0311 18.7076 51.9742 19.0855 51.8417C19.9433 51.6259 20.8011 51.41 21.6589 51.1942C21.6589 51.1942 21.6589 51.1942 21.7345 51.1677L22.6166 54.1681ZM27.6831 65.7156C27.4034 65.6439 27.2257 65.6214 27.0481 65.5988C26.9912 65.1944 26.9834 64.6879 26.8205 63.9813C26.6537 63.0214 26.5361 61.9594 26.3428 60.9239L27.6831 65.7156ZM44.6321 92.2767C44.6656 91.1618 44.4154 89.7219 44.4154 89.7219C44.4154 89.7219 42.5491 83.6719 41.8829 81.5293C43.9008 80.9916 47.7591 79.8936 47.7591 79.8936C47.7591 79.8936 48.7151 79.4737 49.2932 79.1861C49.2971 79.4393 49.4296 79.8172 49.4865 80.2216C49.7288 81.155 49.9751 82.3416 50.3725 83.4753C50.6944 84.6354 51.0917 85.769 51.3832 86.6004C51.6746 87.4317 51.8601 87.9607 51.8601 87.9607C51.8601 87.9607 52.1741 88.6144 52.4881 89.2681C52.8021 89.9218 53.0897 90.4999 53.0632 90.4243C53.2182 90.6246 53.2977 90.8513 53.4263 90.9759C53.3242 90.9269 53.1465 90.9043 52.8933 90.9082C52.0051 90.7953 50.8411 90.8638 50.8411 90.8638C50.8411 90.8638 46.2761 92.1247 44.4849 92.5829C44.636 92.5299 44.6851 92.4279 44.6321 92.2767ZM47.2177 100.62C47.2177 100.62 46.8694 99.3847 46.5701 98.047C46.4337 97.4159 46.2973 96.7848 46.214 96.3048C46.161 96.1536 46.1345 96.0781 46.1836 95.976L46.2592 95.9495C46.8903 95.8132 47.6725 95.6238 48.5038 95.3323C50.1439 94.9271 51.784 94.5219 51.784 94.5219C51.784 94.5219 53.0423 93.9959 53.4692 93.7614C53.4466 93.939 53.4997 94.0902 53.4997 94.0902C53.4997 94.0902 54.4651 97.5706 54.8929 99.033C54.3865 99.0408 53.9066 99.1242 53.9066 99.1242C53.9066 99.1242 49.4172 100.359 47.3237 100.923C47.2707 100.772 47.2177 100.62 47.2177 100.62ZM57.6927 104.841C57.5454 105.147 57.247 105.506 56.7445 105.767C56.5442 105.922 56.1928 106.13 56.1173 106.157C55.9661 106.21 55.815 106.263 55.6903 106.391C55.388 106.497 55.1122 106.679 54.8099 106.785C54.8099 106.785 54.5076 106.891 54.0051 107.152C53.476 107.337 52.7959 107.576 52.1157 107.814C50.7288 108.215 49.2929 108.719 49.444 108.666C48.3104 109.063 47.483 109.608 47.3357 109.914L47.3092 109.839C47.1277 109.563 46.7194 109.366 46.4397 109.295C46.3376 109.246 46.3376 109.246 46.262 109.272C45.6574 109.484 45.1284 109.669 44.6749 109.828C44.4482 109.908 44.195 109.912 44.195 109.912C44.0929 109.863 43.9152 109.84 43.7867 109.716C43.1478 109.345 42.5727 108.189 42.6857 107.301C42.6818 107.048 42.7799 106.844 42.8025 106.666C42.8516 106.564 42.9498 106.36 43.15 106.205C43.4484 105.846 43.9509 105.584 44.48 105.399C45.5871 104.926 46.8493 104.653 48.2097 104.176C49.4945 103.726 50.7302 103.378 52.0149 102.927C52.6196 102.715 53.2507 102.579 53.8818 102.443C54.5129 102.306 55.144 102.17 55.6504 102.162C56.1569 102.154 56.4366 102.226 56.7958 102.524C56.9244 102.649 57.0794 102.849 57.2345 103.049C57.3895 103.25 57.4955 103.552 57.6506 103.752C57.8095 104.206 57.8399 104.534 57.6927 104.841ZM53.5253 92.4688L53.4762 92.5709C53.4006 92.5974 53.2986 92.5482 53.2986 92.5482C53.0454 92.5522 52.7656 92.4805 52.588 92.4579C53.0149 92.2234 53.4419 91.9888 53.4419 91.9888C53.5931 91.9359 53.6421 91.8338 53.7933 91.7808C53.593 91.9358 53.5705 92.1135 53.5253 92.4688ZM71.8128 97.4296C72.4439 97.2932 72.9729 97.1078 73.4529 97.0244C73.9328 96.941 74.239 97.0883 74.5717 97.3111C74.9044 97.5339 75.2145 97.9344 75.4226 98.2858C75.7631 99.015 75.5972 99.7521 74.7698 100.297C74.5695 100.452 74.2937 100.633 74.1425 100.686L73.7156 100.921C73.4398 101.102 73.1375 101.208 72.8352 101.314C72.8352 101.314 72.5594 101.496 72.0304 101.681C71.5013 101.867 70.8211 102.105 70.141 102.344C68.7541 102.745 67.3182 103.248 67.4958 103.271C66.3887 103.744 65.5612 104.289 65.414 104.595C65.308 104.293 64.9753 104.07 64.6956 103.998C64.5935 103.949 64.5935 103.949 64.518 103.976C63.9624 104.085 63.3804 104.12 62.7984 104.154C62.2919 104.162 61.7855 104.17 61.4037 104.049C61.0219 103.928 60.8934 103.803 60.7874 103.501C60.6814 103.199 60.7227 102.59 60.7414 102.159C60.813 101.88 61.0359 101.547 61.4098 101.161C61.8103 100.851 62.2863 100.515 62.7889 100.254C63.7939 99.7315 64.9011 99.2585 66.1368 98.9102C67.2704 98.5128 68.5326 98.2401 69.6928 97.9182C70.5771 97.778 71.2082 97.6416 71.8128 97.4296ZM60.9264 94.4569C60.688 93.7767 60.5517 93.1456 60.3927 92.6921C60.4683 92.6656 60.4683 92.6656 60.5439 92.6391C61.0729 92.4537 61.7531 92.2152 62.4597 92.0523C63.1664 91.8895 63.9486 91.7001 64.5042 91.5902C65.0597 91.4803 65.4376 91.3479 65.4376 91.3479C65.4376 91.3479 65.8646 91.1133 66.318 90.9544C66.745 90.7198 67.1984 90.5609 67.0963 90.5118L67.1719 90.4853C67.1984 90.5609 67.2249 90.6365 67.2514 90.712C67.4104 91.1655 67.6223 91.7701 67.8834 92.2726C68.1709 92.8507 68.3564 93.3798 68.5644 93.7311C68.7724 94.0825 68.8784 94.3849 68.8784 94.3849C68.8784 94.3849 69.1355 94.6342 69.3171 94.91C69.5742 95.1593 69.7557 95.4351 69.7557 95.4351C69.7557 95.4351 69.7823 95.5106 69.8578 95.4842C68.9696 95.3712 67.8056 95.4399 67.8056 95.4399C67.8056 95.4399 63.4674 96.6212 61.7026 97.155C61.6496 97.0038 61.6457 96.7506 61.5397 96.4483C61.2522 95.8702 61.0893 95.1635 60.9264 94.4569ZM54.4776 77.0292C54.4706 78.2198 54.6717 79.7617 54.6717 79.7617C54.6717 79.7617 57.2993 89.1939 57.3523 89.345L57.4544 89.3941C57.7341 89.4658 57.9873 89.4619 58.2406 89.458C58.32 89.6847 58.3995 89.9114 58.4525 90.0626C58.3278 90.1911 58.3053 90.3688 58.2336 90.6485C58.0412 91.31 58.0568 92.3229 58.0568 92.3229C58.0568 92.3229 58.1628 92.6252 58.2726 93.1807C58.4316 93.6342 58.5945 94.3408 58.8329 95.021C59.0449 95.6256 59.2078 96.3323 59.2911 96.8123C59.3745 97.2922 59.4049 97.621 59.4049 97.621L59.507 97.6701C59.9643 97.7644 60.2932 97.734 60.622 97.7036C60.5807 98.3121 60.7396 98.7655 60.9212 99.0413C60.721 99.1964 60.5207 99.3515 60.3205 99.5065C59.7463 100.047 59.123 100.69 58.9345 101.605C58.9345 101.605 58.961 101.68 58.8854 101.707C58.7304 101.507 58.6509 101.28 58.4467 101.182C58.1631 100.857 57.7774 100.483 57.2936 100.313C57.0894 100.215 56.7832 100.068 56.53 100.072C56.9304 99.7614 57.0777 99.4552 56.7715 99.308L56.8471 99.2815C56.9226 99.255 56.9227 99.255 56.9227 99.255C56.8962 99.1794 55.4195 93.7566 55.4195 93.7566C55.4195 93.7566 54.6098 92.1734 54.5608 92.2755C54.2771 91.9506 54.02 91.7013 53.7933 91.7808C53.9179 91.6522 54.0426 91.5237 53.9896 91.3725C54.1673 91.3951 54.288 91.0133 54.2233 90.1025C54.1547 88.9384 53.878 87.423 53.878 87.423C53.878 87.423 53.6926 86.894 53.3747 85.9871C53.0832 85.1557 52.6858 84.0221 52.3905 82.9375C52.0686 81.7774 51.7733 80.6929 51.5574 79.835C51.3416 78.9772 51.3073 78.3952 51.3073 78.3952L51.2052 78.3461C50.899 78.1989 50.5437 78.1537 50.317 78.2332C50.264 78.082 49.9578 77.9348 49.3757 77.9691C49.1981 77.9465 49.0204 77.9239 48.7672 77.9278C49.5495 77.7385 50.2562 77.5756 51.0384 77.3862L54.4698 76.5228C54.5453 76.4963 54.4472 76.7004 54.4776 77.0292ZM66.8049 51.9161C67.0433 52.5963 67.2288 53.1253 67.2023 53.0498C67.5997 54.1834 68.0197 55.1394 68.2994 55.2111C68.4015 55.2601 68.4015 55.2601 68.4506 55.1581C68.4771 55.2337 68.5036 55.3092 68.5301 55.3848C68.5301 55.3848 68.5301 55.3848 68.4545 55.4113L68.4054 55.5134C68.4093 55.7666 68.4132 56.0198 68.4927 56.2465C68.2925 56.4016 68.1678 56.5302 68.0696 56.7343L66.8049 51.9161ZM76.6211 84.0328L76.8743 84.0289L76.9538 84.2556L77.1432 85.0379C76.939 84.9397 76.6329 84.7925 76.4022 84.6187C75.9674 84.3468 75.5062 83.9994 75.0184 83.5763C75.0184 83.5763 75.0184 83.5763 74.9919 83.5007C75.2225 83.6744 75.5022 83.7461 75.782 83.8178C75.9861 83.916 76.1637 83.9386 76.3414 83.9612C76.4435 84.0102 76.5456 84.0593 76.6211 84.0328ZM78.9363 73.2073C78.7586 73.1847 78.5054 73.1886 78.3278 73.166C78.1501 73.1434 77.9234 73.2229 77.7458 73.2003C76.937 73.3141 76.2077 73.6546 75.607 74.1198C75.0063 74.585 74.4321 75.1257 74.0621 75.7646C73.2198 76.9934 72.8124 78.494 72.9114 79.9869C72.9114 79.9869 72.9115 79.9869 72.885 79.9113C72.832 79.7601 72.779 79.609 72.726 79.4579L72.6465 79.2311L72.62 79.1555L72.5896 78.8267C72.4719 77.7648 72.6074 76.6989 73.0492 75.7803C73.3211 75.3455 73.593 74.9107 73.967 74.525C74.3409 74.1393 74.7414 73.8292 75.2439 73.5682C76.1734 73.0726 77.2315 72.7017 78.2709 72.7616C79.2838 72.746 80.3535 73.1348 81.174 73.7807C81.6088 74.0526 82.021 74.5021 82.3311 74.9026C82.3046 74.827 82.2025 74.7779 82.176 74.7023C81.6353 74.1281 80.9208 73.7846 80.2328 73.5166C79.7489 73.3467 79.3671 73.226 78.9363 73.2073ZM83.7922 79.3125C83.7322 80.3518 83.317 81.3461 82.6711 82.1665C82.5464 82.2951 82.622 82.2686 82.5464 82.2951L82.4934 82.1439L82.4404 81.9928C82.414 81.9172 82.361 81.7661 82.3345 81.6905C82.2815 81.5393 82.3041 81.3617 82.2776 81.2861C82.3002 81.1085 82.3267 81.184 82.4248 80.9799C82.5495 80.8513 82.8744 80.5677 83.1728 80.2085C83.4712 79.8493 83.7166 79.339 83.8108 78.8816C83.8334 78.7039 83.856 78.5263 83.8295 78.4507C83.7844 78.806 83.7882 79.0592 83.7922 79.3125Z" fill="#F4774C"/>
</svg>
