<svg width="377" height="372" viewBox="0 0 377 372" fill="none" xmlns="http://www.w3.org/2000/svg">
<path d="M61.6713 215.491C62.5434 214.525 62.7841 213.287 62.4269 212.388C62.4103 212.083 62.4103 212.083 62.4103 212.083L56.5794 206.889L56.2554 206.601L56.8201 205.652C57.9662 204.059 59.1122 202.465 59.951 200.889C62.2431 197.702 63.8708 193.633 64.5765 189.615C65.2822 185.596 64.7254 181.034 62.682 177.472C60.9292 173.587 57.6898 170.702 54.1764 168.444C50.663 166.186 46.5848 164.877 42.8472 164.163C38.8023 163.464 34.7907 163.377 30.8124 163.9C26.834 164.423 22.8889 165.556 19.301 167.589C15.7131 169.621 12.4492 171.942 9.84977 175.145C7.2337 178.043 5.28213 181.824 3.94518 185.571C3.12305 187.452 2.91551 189.301 2.41733 191.471C2.20981 193.319 2.01897 195.473 1.81146 197.321C1.72037 201.306 2.56778 205.546 4.62784 209.414C6.6879 213.282 9.92735 216.167 13.7315 218.103C21.3397 221.975 29.9442 221.506 37.5271 219.256C42.3608 217.461 41.4556 217.817 42.3608 217.461C42.9755 217.428 43.5735 217.089 44.4954 217.039C44.4954 217.039 45.0934 216.7 46.3226 216.633C47.5352 216.261 48.7644 216.194 50.3009 216.11C53.374 215.943 56.4637 216.081 56.1398 215.792C58.9055 215.642 61.0734 215.83 61.6713 215.491ZM50.1472 213.289C47.6721 213.118 44.8875 212.687 44.8875 212.687C43.9656 212.737 43.7359 213.347 43.1439 213.379C42.5519 213.412 42.7456 213.692 42.4382 213.709C42.4382 213.709 41.7491 213.82 41.4004 214.072C41.1343 214.263 41.0916 214.488 40.8408 214.699C40.28 215.172 39.0973 215.391 39.0973 215.391C35.4761 216.813 32.8231 218.358 29.4427 218.542C26.0623 218.726 21.742 219.399 18.5858 218.041C15.4295 216.682 10.2613 213.348 8.26779 210.701C6.27426 208.054 4.73566 202.14 4.53607 198.477C4.35312 195.119 4.20529 192.45 5.25156 189.025C6.29783 185.6 8.57054 180.586 10.572 177.721C14.8822 171.975 22.9408 167.586 29.9589 166.286C33.63 165.779 37.4783 165.867 41.2159 166.582C44.9368 166.992 48.2915 168.269 51.4643 169.933C53.0507 170.765 55.1316 172.688 56.4274 173.842C57.7231 174.996 58.7001 175.328 59.6001 176.861C60.2978 178.353 62.2636 181.046 62.6707 182.861C62.7538 184.387 63.2585 187.33 62.727 188.889C62.2954 192.281 60.3342 195.05 58.3494 198.22C57.5106 199.796 56.1872 201.293 55.0245 202.581L54.2714 203.647L52.5439 205.885L52.2699 206.512L51.9793 206.834L52.3031 207.122L53.275 207.988L55.2187 209.719L59.1604 213.104C56.6853 212.933 52.6057 213.155 50.1472 213.289Z" fill="#F4774C"/>
<path d="M15.7861 193.326L16.0739 193.381C16.1558 193.541 16.2377 193.701 16.3195 193.861L16.4015 194.021C16.4015 194.021 16.4015 194.021 16.6074 193.915C16.8134 193.81 16.8133 193.81 16.9374 193.545C16.9374 193.545 16.9374 193.545 17.0193 193.705C17.0193 193.705 17.0193 193.705 17.3072 193.759C17.595 193.814 17.801 193.709 18.0069 193.603C18.2129 193.498 18.2129 193.498 18.2129 193.498L18.5429 193.127L18.9548 192.916L20.1088 192.124C20.8507 191.542 21.6746 191.12 22.4984 190.699C26.4539 188.271 30.7791 186.057 34.8984 183.95L37.3699 182.685C37.3699 182.685 39.5536 181.365 41.6132 180.311C43.5909 179.097 45.7746 177.778 45.5687 177.883C47.1345 176.88 48.4125 175.822 48.6606 175.291C48.7028 174.866 47.7971 175.128 44.8317 176.443C40.9606 178.02 36.5536 180.074 36.5536 180.074L33.6701 181.549C29.3449 183.763 25.0196 185.976 20.8582 188.51C20.0344 188.931 19.0865 189.618 18.3445 190.2L17.1906 190.992L16.7787 191.203C16.5727 191.308 16.5728 191.308 16.3668 191.414L15.6248 191.995L15.5007 192.261C15.3766 192.526 15.4585 192.686 15.3345 192.952L15.7861 193.326Z" fill="#F4774C"/>
<path d="M18.2879 219.357L18.3869 219.357C18.4073 219.397 18.4278 219.437 18.4483 219.477L18.4688 219.517C18.4688 219.517 18.4688 219.517 18.5472 219.477C18.6257 219.436 18.6257 219.436 18.6837 219.356C18.6837 219.356 18.6837 219.356 18.7041 219.396C18.7041 219.396 18.7041 219.396 18.8031 219.396C18.902 219.396 18.9805 219.356 19.0589 219.316C19.1374 219.275 19.1374 219.275 19.1374 219.275L19.2738 219.155L19.4308 219.075L19.8811 218.794C20.1744 218.593 20.4883 218.433 20.8021 218.272C22.3304 217.389 23.9781 216.546 25.5474 215.743L26.4889 215.261C26.4889 215.261 27.3315 214.779 28.1161 214.378C28.8803 213.936 29.7229 213.455 29.6444 213.495C30.2516 213.134 30.7599 212.772 30.8759 212.612C30.9134 212.492 30.5791 212.613 29.4602 213.135C28.0069 213.777 26.3388 214.581 26.3388 214.581L25.2403 215.143C23.5926 215.986 21.9449 216.829 20.3381 217.752C20.0243 217.913 19.6525 218.154 19.3591 218.354L18.9088 218.635L18.7519 218.716C18.6734 218.756 18.6734 218.756 18.595 218.796L18.3016 218.996L18.2436 219.077C18.1856 219.157 18.2061 219.197 18.1481 219.277L18.2879 219.357Z" fill="#F4774C"/>
<path d="M11.8035 214.598L11.8927 214.603C11.9131 214.643 11.9336 214.683 11.9541 214.723L11.9745 214.763C11.9745 214.763 11.9745 214.763 12.0432 214.727C12.1119 214.692 12.1118 214.692 12.16 214.617C12.16 214.617 12.16 214.617 12.1805 214.657C12.1805 214.657 12.1805 214.657 12.2696 214.662C12.3587 214.667 12.4274 214.632 12.496 214.597C12.5647 214.562 12.5647 214.562 12.5647 214.562L12.6815 214.451L12.8188 214.381L13.2103 214.13C13.4644 213.95 13.7391 213.809 14.0137 213.669C15.3458 212.886 16.7876 212.148 18.1606 211.445L18.9845 211.024C18.9845 211.024 19.7192 210.597 20.4057 210.246C21.0718 209.855 21.8065 209.428 21.7379 209.463C22.2666 209.142 22.7063 208.816 22.8027 208.666C22.8304 208.551 22.5353 208.651 21.5536 209.103C20.2769 209.656 18.8147 210.354 18.8147 210.354L17.8536 210.845C16.4119 211.583 14.9701 212.321 13.5693 213.139C13.2947 213.279 12.9719 213.495 12.7178 213.676L12.3263 213.926L12.189 213.997C12.1203 214.032 12.1203 214.032 12.0517 214.067L11.7975 214.247L11.7494 214.323C11.7012 214.398 11.7216 214.438 11.6735 214.513L11.8035 214.598Z" fill="#F4774C"/>
<path d="M15.8719 218.572L15.9709 218.572C15.9913 218.612 16.0118 218.652 16.0323 218.692L16.0527 218.732C16.0527 218.732 16.0528 218.732 16.1312 218.692C16.2097 218.652 16.2097 218.652 16.2676 218.572C16.2676 218.572 16.2677 218.572 16.2881 218.612C16.2881 218.612 16.2881 218.612 16.3871 218.611C16.486 218.611 16.5644 218.571 16.6429 218.531C16.7214 218.491 16.7214 218.491 16.7214 218.491L16.8578 218.37L17.0147 218.29L17.4651 218.009C17.7584 217.809 18.0723 217.648 18.3861 217.487C19.9144 216.604 21.5621 215.761 23.1314 214.958L24.0729 214.476C24.0729 214.476 24.9155 213.995 25.7001 213.593C26.4643 213.152 27.3069 212.67 27.2284 212.71C27.8356 212.349 28.3439 211.988 28.4599 211.827C28.4974 211.707 28.1631 211.828 27.0442 212.35C25.5909 212.993 23.9228 213.796 23.9228 213.796L22.8243 214.358C21.1766 215.201 19.5289 216.045 17.9221 216.968C17.6083 217.128 17.2365 217.369 16.9431 217.57L16.4928 217.851L16.3358 217.931C16.2574 217.971 16.2574 217.971 16.1789 218.011L15.8856 218.212L15.8276 218.292C15.7696 218.372 15.79 218.412 15.7321 218.492L15.8719 218.572Z" fill="#F4774C"/>
<path d="M9.38556 213.817L9.47468 213.822C9.49515 213.862 9.51562 213.902 9.53609 213.942L9.55657 213.982C9.55657 213.982 9.55657 213.982 9.62523 213.947C9.69388 213.912 9.69386 213.912 9.74204 213.837C9.74204 213.837 9.74205 213.837 9.76252 213.877C9.76252 213.877 9.76252 213.877 9.85165 213.882C9.94077 213.887 10.0094 213.851 10.0781 213.816C10.1467 213.781 10.1467 213.781 10.1467 213.781L10.2636 213.671L10.4009 213.601L10.7923 213.35C11.0465 213.169 11.3211 213.029 11.5957 212.888C12.9279 212.106 14.3696 211.368 15.7427 210.665L16.5665 210.244C16.5665 210.244 17.3012 209.817 17.9878 209.466C18.6538 209.074 19.3886 208.648 19.3199 208.683C19.8487 208.362 20.2883 208.036 20.3847 207.886C20.4124 207.771 20.1173 207.871 19.1357 208.323C17.859 208.875 16.3968 209.573 16.3968 209.573L15.4356 210.065C13.9939 210.803 12.5521 211.541 11.1513 212.359C10.8767 212.499 10.5539 212.715 10.2998 212.895L9.90833 213.146L9.77102 213.216C9.70236 213.251 9.70238 213.251 9.63372 213.287L9.37958 213.467L9.33138 213.542C9.2832 213.617 9.30367 213.657 9.25549 213.733L9.38556 213.817Z" fill="#F4774C"/>
<path d="M14.2234 217.398L14.2929 217.413C14.3133 217.453 14.3338 217.493 14.3543 217.533L14.3748 217.573C14.3748 217.573 14.3748 217.573 14.4238 217.548C14.4728 217.523 14.4728 217.523 14.5014 217.458C14.5014 217.458 14.5014 217.458 14.5219 217.498C14.5219 217.498 14.5219 217.498 14.5914 217.513C14.6609 217.528 14.7099 217.503 14.759 217.478C14.808 217.452 14.808 217.452 14.808 217.452L14.8856 217.362L14.9837 217.312L15.2574 217.121C15.4331 216.981 15.6293 216.881 15.8254 216.78C16.7653 216.198 17.7951 215.671 18.7759 215.169L19.3643 214.868C19.3643 214.868 19.8833 214.552 20.3737 214.301C20.8436 214.01 21.3625 213.694 21.3135 213.719C21.6853 213.479 21.9876 213.223 22.0448 213.093C22.0529 212.988 21.8363 213.048 21.1292 213.359C20.2056 213.731 19.1553 214.218 19.1553 214.218L18.4688 214.569C17.439 215.096 16.4092 215.623 15.4203 216.23C15.2241 216.331 14.9994 216.496 14.8237 216.637L14.55 216.827L14.4519 216.877C14.4029 216.903 14.4029 216.903 14.3538 216.928L14.1781 217.068L14.1496 217.133C14.121 217.198 14.1415 217.238 14.1129 217.303L14.2234 217.398Z" fill="#F4774C"/>
<path d="M7.7419 212.637L7.8065 212.654C7.82697 212.694 7.84744 212.734 7.86791 212.774L7.88839 212.814C7.88839 212.814 7.88839 212.814 7.93252 212.791C7.97666 212.769 7.97664 212.769 8.00031 212.706C8.00031 212.706 8.00032 212.706 8.02079 212.746C8.02079 212.746 8.02078 212.746 8.08539 212.764C8.14999 212.781 8.19413 212.759 8.23827 212.736C8.2824 212.713 8.2824 212.713 8.2824 212.713L8.3502 212.628L8.43846 212.583L8.68281 212.407C8.83887 212.277 9.01541 212.187 9.19195 212.096C10.0337 211.565 10.9605 211.09 11.8432 210.639L12.3728 210.368C12.3728 210.368 12.8379 210.079 13.2792 209.853C13.7001 209.588 14.1651 209.299 14.121 209.322C14.4536 209.101 14.7216 208.863 14.7689 208.738C14.7721 208.635 14.5751 208.685 13.9367 208.962C13.1014 209.288 12.1541 209.722 12.1541 209.722L11.5362 210.039C10.6093 210.513 9.6825 210.987 8.79661 211.542C8.62007 211.632 8.41988 211.785 8.26381 211.915L8.01948 212.091L7.9312 212.136C7.88707 212.158 7.88708 212.158 7.84294 212.181L7.68687 212.311L7.6632 212.374C7.63954 212.437 7.66001 212.477 7.63635 212.539L7.7419 212.637Z" fill="#F4774C"/>
<path d="M14.2019 215.393L14.2714 215.408C14.2919 215.448 14.3123 215.488 14.3328 215.528L14.3533 215.568C14.3533 215.568 14.3533 215.568 14.4023 215.543C14.4514 215.518 14.4513 215.518 14.4799 215.453C14.4799 215.453 14.4799 215.453 14.5004 215.493C14.5004 215.493 14.5004 215.493 14.5699 215.508C14.6394 215.523 14.6884 215.498 14.7375 215.473C14.7865 215.448 14.7865 215.448 14.7865 215.448L14.8641 215.357L14.9622 215.307L15.236 215.117C15.4116 214.976 15.6078 214.876 15.804 214.775C16.7438 214.193 17.7736 213.667 18.7544 213.165L19.3428 212.863C19.3428 212.863 19.8618 212.547 20.3522 212.296C20.8221 212.006 21.341 211.689 21.292 211.715C21.6638 211.474 21.9662 211.218 22.0233 211.088C22.0314 210.983 21.8148 211.043 21.1078 211.355C20.1841 211.726 19.1339 212.213 19.1339 212.213L18.4473 212.565C17.4175 213.092 16.3877 213.619 15.3988 214.226C15.2027 214.326 14.9779 214.491 14.8023 214.632L14.5285 214.822L14.4304 214.873C14.3814 214.898 14.3814 214.898 14.3323 214.923L14.1567 215.063L14.1281 215.128C14.0995 215.193 14.12 215.233 14.0914 215.298L14.2019 215.393Z" fill="#F4774C"/>
<path d="M7.72432 210.628L7.78892 210.645C7.80939 210.685 7.82986 210.725 7.85033 210.765L7.87081 210.805C7.87081 210.805 7.87081 210.805 7.91495 210.783C7.95908 210.76 7.95907 210.76 7.98273 210.697C7.98273 210.697 7.98274 210.697 8.00321 210.737C8.00321 210.737 8.00321 210.737 8.06781 210.755C8.13242 210.772 8.17655 210.75 8.22069 210.727C8.26482 210.705 8.26483 210.705 8.26483 210.705L8.33262 210.619L8.42088 210.574L8.66523 210.399C8.8213 210.268 8.99783 210.178 9.17437 210.088C10.0161 209.556 10.943 209.082 11.8257 208.63L12.3553 208.359C12.3553 208.359 12.8203 208.07 13.2616 207.845C13.6825 207.579 14.1475 207.29 14.1034 207.313C14.436 207.092 14.704 206.854 14.7513 206.729C14.7545 206.626 14.5575 206.677 13.9191 206.953C13.0838 207.279 12.1365 207.714 12.1365 207.714L11.5186 208.03C10.5918 208.504 9.66492 208.978 8.77904 209.533C8.6025 209.623 8.4023 209.776 8.24623 209.906L8.0019 210.082L7.91363 210.127C7.86949 210.15 7.8695 210.15 7.82536 210.172L7.66929 210.303L7.64562 210.365C7.62196 210.428 7.64243 210.468 7.61877 210.53L7.72432 210.628Z" fill="#F4774C"/>
<path d="M47.9304 184.287C44.3086 185.573 39.2797 187.768 39.2797 187.768L36.3121 189.286L20.7029 197.464L15.4036 200.176C15.4036 200.176 15.1917 200.284 15.2685 200.434C14.11 202.352 15.5537 202.559 16.3432 202.534L16.5551 202.426L21.8544 199.714L37.4636 191.536L40.0072 190.235C40.0072 190.235 42.0502 189 44.3819 187.807C46.4248 186.572 48.5445 185.487 48.3325 185.596C51.936 183.752 54.0375 182.108 47.9304 184.287Z" fill="#F4774C"/>
<path d="M38.7727 195.597C37.7966 195.844 36.3837 196.314 36.3837 196.314C36.3837 196.314 34.4177 197.32 32.5029 198.427C31.6292 198.874 30.5369 199.433 29.8816 199.768C29.2263 200.103 28.7894 200.327 28.571 200.439C28.571 200.439 28.571 200.439 28.6222 200.539C28.5435 201.462 29.0178 201.851 29.3386 201.939C29.3386 201.939 29.7755 201.715 30.6493 201.268C31.3046 200.933 32.3968 200.374 33.2706 199.927C35.2366 198.921 36.9329 197.926 36.9329 197.926L38.9637 196.508C39.9536 195.75 40.4554 195.114 38.7727 195.597Z" fill="#F4774C"/>
<path d="M333.967 215.633C333.446 215.064 333.3 214.332 333.51 213.8C333.519 213.619 333.519 213.619 333.519 213.619L336.975 210.536L337.167 210.364L336.828 209.804C336.143 208.864 335.457 207.924 334.955 206.993C333.584 205.113 332.606 202.71 332.176 200.335C331.747 197.96 332.067 195.26 333.274 193.149C334.307 190.848 336.227 189.135 338.311 187.792C340.395 186.45 342.818 185.667 345.039 185.237C347.443 184.815 349.829 184.755 352.197 185.056C354.564 185.358 356.914 186.02 359.052 187.214C361.191 188.409 363.138 189.775 364.692 191.664C366.255 193.373 367.425 195.605 368.229 197.818C368.723 198.929 368.851 200.022 369.152 201.305C369.28 202.397 369.399 203.671 369.527 204.763C369.591 207.12 369.097 209.63 367.881 211.922C366.665 214.214 364.745 215.927 362.487 217.079C357.971 219.385 352.852 219.125 348.337 217.81C345.457 216.759 345.996 216.967 345.457 216.759C345.091 216.74 344.735 216.541 344.187 216.514C344.187 216.514 343.83 216.314 343.099 216.277C342.377 216.06 341.645 216.023 340.731 215.976C338.903 215.884 337.066 215.971 337.258 215.8C335.612 215.717 334.323 215.832 333.967 215.633ZM340.816 214.307C342.288 214.201 343.943 213.941 343.943 213.941C344.491 213.968 344.629 214.328 344.982 214.346C345.334 214.364 345.219 214.53 345.402 214.54C345.402 214.54 345.812 214.604 346.02 214.752C346.179 214.865 346.205 214.998 346.355 215.122C346.689 215.401 347.393 215.528 347.393 215.528C349.551 216.361 351.321 216.694 353.332 216.796C355.343 216.898 357.864 216.611 359.738 215.801C361.612 214.991 364.038 213.764 365.217 212.194C366.396 210.625 367.19 208.111 367.3 205.944C367.4 203.958 367.529 201.945 366.899 199.921C366.268 197.898 364.896 195.093 363.698 193.403C361.121 190.014 356.539 187.934 352.362 187.179C350.177 186.887 348.226 186.779 346.004 187.21C343.792 187.46 341.811 187.676 339.928 188.667C338.986 189.162 337.753 190.304 336.985 190.99C336.217 191.675 335.857 192.345 335.326 193.253C334.914 194.137 334.12 195.408 333.882 196.482C333.836 197.385 333.401 198.73 333.721 199.651C333.986 201.656 334.713 203.541 335.901 205.412C336.404 206.342 337.194 207.225 337.889 207.984L338.34 208.613L339.372 209.933L339.537 210.303L339.711 210.493L339.519 210.665L338.943 211.178L337.791 212.206L335.454 214.216C336.926 214.11 339.353 214.233 340.816 214.307Z" fill="#F4774C"/>
<path d="M333.783 197.233L333.794 197.31C333.765 197.33 333.736 197.35 333.707 197.371L333.679 197.391C333.679 197.391 333.679 197.391 333.718 197.448C333.758 197.504 333.758 197.504 333.826 197.541C333.826 197.541 333.826 197.541 333.798 197.561C333.798 197.561 333.798 197.561 333.808 197.638C333.819 197.715 333.859 197.771 333.898 197.828C333.938 197.885 333.938 197.885 333.938 197.885L334.046 197.978L334.126 198.091L334.393 198.411C334.58 198.617 334.739 198.844 334.898 199.071C335.749 200.163 336.582 201.353 337.375 202.487L337.851 203.166C337.851 203.166 338.316 203.77 338.713 204.336C339.139 204.883 339.604 205.486 339.564 205.429C339.911 205.862 340.246 206.218 340.383 206.291C340.481 206.307 340.351 206.06 339.824 205.247C339.168 204.187 338.364 202.976 338.364 202.976L337.808 202.183C336.975 200.993 336.142 199.803 335.251 198.654C335.093 198.427 334.866 198.164 334.678 197.958L334.411 197.638L334.332 197.525C334.292 197.468 334.292 197.468 334.252 197.411L334.065 197.205L333.996 197.168C333.928 197.132 333.899 197.152 333.83 197.116L333.783 197.233Z" fill="#F4774C"/>
<path d="M336.784 191.68L336.79 191.749C336.761 191.77 336.732 191.79 336.703 191.81L336.674 191.83C336.674 191.83 336.674 191.83 336.709 191.88C336.744 191.93 336.744 191.93 336.807 191.959C336.807 191.959 336.807 191.959 336.779 191.979C336.779 191.979 336.779 191.979 336.784 192.049C336.79 192.119 336.825 192.168 336.86 192.218C336.894 192.267 336.894 192.267 336.894 192.267L336.993 192.346L337.062 192.446L337.299 192.723C337.467 192.901 337.606 193.099 337.745 193.298C338.497 194.249 339.226 195.29 339.92 196.281L340.336 196.876C340.336 196.876 340.747 197.402 341.094 197.897C341.47 198.373 341.881 198.898 341.846 198.848C342.153 199.225 342.454 199.532 342.581 199.59C342.673 199.599 342.563 199.381 342.106 198.666C341.539 197.734 340.839 196.672 340.839 196.672L340.353 195.978C339.624 194.937 338.895 193.896 338.109 192.895C337.97 192.697 337.767 192.469 337.6 192.291L337.362 192.014L337.293 191.915C337.258 191.865 337.258 191.865 337.224 191.815L337.056 191.637L336.992 191.608C336.929 191.579 336.9 191.599 336.836 191.569L336.784 191.68Z" fill="#F4774C"/>
<path d="M334.133 195.269L334.144 195.346C334.115 195.366 334.086 195.386 334.057 195.406L334.028 195.427C334.028 195.427 334.028 195.427 334.068 195.483C334.107 195.54 334.107 195.54 334.176 195.576C334.176 195.576 334.176 195.576 334.147 195.597C334.147 195.597 334.147 195.597 334.158 195.673C334.169 195.75 334.208 195.807 334.248 195.864C334.288 195.92 334.288 195.92 334.288 195.92L334.396 196.013L334.475 196.127L334.742 196.447C334.93 196.653 335.088 196.88 335.247 197.106C336.098 198.199 336.931 199.389 337.725 200.522L338.201 201.202C338.201 201.202 338.666 201.805 339.063 202.372C339.488 202.918 339.954 203.521 339.914 203.465C340.26 203.898 340.596 204.254 340.733 204.327C340.83 204.343 340.7 204.096 340.174 203.283C339.518 202.222 338.713 201.012 338.713 201.012L338.158 200.219C337.325 199.029 336.492 197.839 335.601 196.69C335.442 196.463 335.215 196.2 335.028 195.993L334.761 195.674L334.681 195.56C334.642 195.504 334.642 195.504 334.602 195.447L334.414 195.241L334.346 195.204C334.277 195.168 334.248 195.188 334.18 195.151L334.133 195.269Z" fill="#F4774C"/>
<path d="M337.13 189.715L337.136 189.785C337.107 189.805 337.078 189.826 337.049 189.846L337.02 189.866C337.02 189.866 337.02 189.866 337.055 189.916C337.09 189.965 337.09 189.965 337.153 189.995C337.153 189.995 337.153 189.995 337.124 190.015C337.124 190.015 337.124 190.015 337.13 190.085C337.136 190.154 337.171 190.204 337.205 190.254C337.24 190.303 337.24 190.303 337.24 190.303L337.338 190.382L337.408 190.481L337.645 190.758C337.813 190.937 337.952 191.135 338.09 191.333C338.842 192.284 339.571 193.326 340.266 194.317L340.682 194.912C340.682 194.912 341.093 195.437 341.44 195.933C341.816 196.409 342.227 196.934 342.192 196.884C342.499 197.261 342.799 197.567 342.926 197.626C343.019 197.635 342.909 197.416 342.452 196.702C341.885 195.769 341.185 194.708 341.185 194.708L340.699 194.014C339.97 192.973 339.241 191.931 338.454 190.931C338.315 190.732 338.113 190.505 337.945 190.327L337.708 190.049L337.639 189.95C337.604 189.901 337.604 189.901 337.569 189.851L337.402 189.673L337.338 189.644C337.274 189.614 337.245 189.634 337.182 189.605L337.13 189.715Z" fill="#F4774C"/>
<path d="M334.864 193.861L334.86 193.916C334.831 193.937 334.802 193.957 334.773 193.977L334.744 193.997C334.744 193.997 334.744 193.997 334.769 194.033C334.794 194.068 334.794 194.068 334.848 194.083C334.848 194.083 334.848 194.083 334.819 194.104C334.819 194.104 334.819 194.104 334.815 194.159C334.811 194.215 334.835 194.25 334.86 194.286C334.885 194.321 334.885 194.321 334.885 194.321L334.964 194.372L335.013 194.443L335.191 194.635C335.319 194.756 335.418 194.898 335.517 195.04C336.071 195.707 336.591 196.451 337.087 197.159L337.385 197.584C337.385 197.584 337.687 197.954 337.934 198.308C338.211 198.642 338.513 199.011 338.488 198.976C338.715 199.239 338.947 199.446 339.054 199.477C339.137 199.472 339.066 199.31 338.748 198.794C338.36 198.116 337.868 197.352 337.868 197.352L337.521 196.856C337 196.112 336.479 195.369 335.901 194.665C335.802 194.524 335.649 194.367 335.521 194.245L335.343 194.053L335.294 193.982C335.269 193.947 335.269 193.947 335.244 193.912L335.116 193.79L335.062 193.775C335.009 193.76 334.98 193.78 334.926 193.765L334.864 193.861Z" fill="#F4774C"/>
<path d="M337.866 188.309L337.859 188.361C337.83 188.381 337.801 188.402 337.772 188.422L337.743 188.442C337.743 188.442 337.743 188.442 337.766 188.474C337.788 188.506 337.788 188.506 337.839 188.517C337.839 188.517 337.839 188.517 337.81 188.538C337.81 188.538 337.81 188.538 337.804 188.59C337.797 188.642 337.82 188.674 337.842 188.706C337.864 188.737 337.864 188.737 337.864 188.737L337.938 188.781L337.982 188.845L338.145 189.016C338.263 189.123 338.352 189.25 338.442 189.378C338.946 189.975 339.414 190.644 339.861 191.282L340.128 191.664C340.128 191.664 340.403 191.995 340.626 192.313C340.878 192.612 341.152 192.942 341.13 192.91C341.337 193.145 341.551 193.328 341.654 193.351C341.734 193.342 341.674 193.195 341.39 192.728C341.046 192.114 340.606 191.425 340.606 191.425L340.294 190.978C339.825 190.309 339.357 189.64 338.83 189.011C338.741 188.883 338.601 188.744 338.483 188.637L338.32 188.466L338.275 188.402C338.253 188.37 338.253 188.37 338.231 188.338L338.112 188.231L338.061 188.219C338.01 188.208 337.981 188.228 337.93 188.216L337.866 188.309Z" fill="#F4774C"/>
<path d="M336.427 193.63L336.423 193.686C336.394 193.706 336.365 193.726 336.336 193.746L336.307 193.766C336.307 193.766 336.307 193.766 336.332 193.802C336.357 193.837 336.357 193.837 336.41 193.852C336.41 193.852 336.41 193.852 336.381 193.873C336.381 193.873 336.381 193.873 336.377 193.928C336.373 193.984 336.398 194.019 336.423 194.055C336.448 194.09 336.448 194.09 336.448 194.09L336.526 194.141L336.576 194.212L336.753 194.404C336.881 194.525 336.98 194.667 337.08 194.809C337.633 195.476 338.154 196.22 338.65 196.928L338.947 197.353C338.947 197.353 339.249 197.723 339.497 198.077C339.774 198.411 340.075 198.78 340.051 198.745C340.278 199.008 340.509 199.215 340.617 199.246C340.699 199.241 340.629 199.079 340.311 198.563C339.922 197.885 339.43 197.121 339.43 197.121L339.083 196.625C338.563 195.881 338.042 195.138 337.463 194.434C337.364 194.293 337.211 194.136 337.083 194.014L336.906 193.822L336.856 193.751C336.831 193.716 336.831 193.716 336.806 193.681L336.678 193.559L336.625 193.544C336.571 193.529 336.542 193.549 336.488 193.534L336.427 193.63Z" fill="#F4774C"/>
<path d="M339.426 188.078L339.42 188.13C339.391 188.15 339.362 188.171 339.333 188.191L339.304 188.211C339.304 188.211 339.304 188.211 339.326 188.243C339.349 188.275 339.349 188.275 339.4 188.286C339.4 188.286 339.4 188.286 339.371 188.307C339.371 188.307 339.371 188.307 339.364 188.359C339.358 188.411 339.38 188.443 339.402 188.475C339.425 188.506 339.425 188.506 339.425 188.506L339.498 188.55L339.543 188.614L339.706 188.785C339.824 188.892 339.913 189.019 340.002 189.147C340.506 189.744 340.975 190.413 341.421 191.051L341.689 191.433C341.689 191.433 341.963 191.764 342.187 192.082C342.439 192.381 342.713 192.711 342.691 192.679C342.898 192.914 343.112 193.097 343.214 193.12C343.294 193.111 343.234 192.964 342.951 192.497C342.607 191.883 342.167 191.194 342.167 191.194L341.855 190.747C341.386 190.078 340.917 189.409 340.391 188.78C340.302 188.652 340.161 188.513 340.043 188.406L339.88 188.235L339.836 188.171C339.813 188.139 339.813 188.139 339.791 188.107L339.673 188L339.622 187.989C339.571 187.977 339.542 187.997 339.49 187.985L339.426 188.078Z" fill="#F4774C"/>
<path d="M359.548 203.991C357.935 201.812 355.579 198.922 355.579 198.922L354.1 197.296L353.732 196.838C352.848 195.78 351.957 194.927 351.144 194.043L351.066 194.075C350.218 194.218 350.636 195.466 350.997 196.129C351.068 196.303 351.068 196.303 351.068 196.303C351.882 197.187 352.773 198.039 353.657 199.097L354.025 199.555L355.206 200.898C355.206 200.898 356.317 202.066 357.427 203.234C358.538 204.403 359.578 205.397 359.429 205.255C361.14 206.787 362.336 207.718 359.548 203.991Z" fill="#F4774C"/>
<path d="M354.181 205.183C353.801 204.282 353.203 203.261 353.203 203.261C353.203 203.261 352.239 201.969 351.199 200.498C350.681 199.867 350.164 199.236 349.793 198.756C349.352 198.305 349.128 197.975 349.057 198.005L348.986 198.035C348.787 198.756 348.954 199.747 349.035 200.137C349.035 200.137 349.329 200.437 349.623 200.738C349.994 201.218 350.435 201.669 350.882 202.329C351.846 203.621 352.81 204.912 352.81 204.912C352.81 204.912 354.063 206.294 353.987 206.114C354.5 206.534 354.861 206.594 354.181 205.183Z" fill="#F4774C"/>
<circle cx="340" cy="106" r="37" fill="white"/>
<path d="M339.012 121.914C338.704 122.161 338.156 121.878 337.369 121.067C337.163 120.89 337.06 120.678 337.06 120.431C337.06 120.255 337.197 119.514 337.471 118.208C337.54 117.714 337.608 117.361 337.677 117.149C337.848 116.302 338.053 115.402 338.293 114.449C338.567 113.461 338.738 112.826 338.807 112.544C339.081 112.402 339.697 110.673 340.656 107.356C341.169 105.45 341.751 103.491 342.402 101.48C342.71 100.492 342.95 99.6269 343.121 98.8858C343.292 98.1447 343.412 97.6682 343.48 97.4565C343.172 97.6329 342.505 98.0388 341.477 98.674C340.484 99.274 339.543 99.9269 338.653 100.633C338.584 100.668 337.934 101.144 336.701 102.062C336.427 102.238 336.05 102.503 335.571 102.856C335.126 103.209 334.749 103.474 334.441 103.65C333.927 104.074 333.499 104.409 333.157 104.656C332.849 104.868 332.626 104.974 332.489 104.974C332.421 104.974 332.25 104.903 331.976 104.762C331.325 104.162 331 103.58 331 103.015C331 102.803 331.051 102.591 331.154 102.38C331.291 102.344 331.907 101.921 333.003 101.109C334.236 100.192 334.938 99.6975 335.109 99.6269C335.177 99.6269 335.366 99.5034 335.674 99.2563C335.982 98.974 336.273 98.7446 336.547 98.5682C336.65 98.427 337.454 97.8094 338.961 96.7153L341.683 94.6508C344.559 92.8156 346.134 91.9333 346.408 92.0039C346.579 92.0392 346.853 92.2157 347.23 92.5333C347.64 92.8156 347.863 93.098 347.897 93.3803C347.966 93.5215 348 93.645 348 93.7509C348 93.9979 347.863 94.439 347.589 95.0743C347.281 95.7448 346.716 97.2977 345.894 99.7328C345.107 102.168 344.508 104.091 344.097 105.503C343.857 106.421 343.497 107.55 343.018 108.891C342.915 109.209 342.761 109.667 342.556 110.267C342.385 110.832 342.231 111.414 342.094 112.014C341.785 112.791 341.443 113.867 341.066 115.243C340.69 116.62 340.399 117.784 340.193 118.737L339.68 120.325C339.372 121.278 339.149 121.808 339.012 121.914Z" fill="#F4774C"/>
<circle cx="80" cy="90" r="37" fill="white"/>
<rect width="30" height="30" transform="translate(67 76)" fill="white"/>
<path d="M76.7643 106C75.2136 106 73.8373 105.77 72.6355 105.31C71.4725 104.812 70.9297 104.237 71.0073 103.585C71.046 103.164 71.1042 102.895 71.1817 102.78C71.298 102.627 71.5112 102.55 71.8214 102.55L73.0426 102.665C73.8955 102.819 74.5933 102.895 75.136 102.895C76.8806 102.895 78.6639 102.57 80.486 101.918C82.3081 101.266 83.6843 100.481 84.6147 99.5608C85.5452 98.6792 86.0104 97.7593 86.0104 96.8011C86.0104 95.7279 85.4095 94.7888 84.2077 93.9839C83.4711 93.4856 82.3468 93.0257 80.8349 92.6041C79.323 92.1824 78.1599 92.01 77.3458 92.0866C77.2295 92.125 77.0744 92.1441 76.8806 92.1441C76.4929 92.1441 76.0083 91.9716 75.4268 91.6267C75.0779 91.2434 74.729 90.7068 74.3801 90.0169C74.3413 89.8252 74.4382 89.6336 74.6708 89.4419C74.9422 89.2503 75.5625 88.8862 76.5317 88.3496C77.5009 87.7746 78.7608 87.0847 80.3115 86.2798C82.6764 84.9766 84.3628 84.0184 85.3707 83.4051C86.4174 82.7535 87.2316 82.1978 87.8131 81.7378C88.1232 81.3545 88.3752 81.0096 88.5691 80.703C88.7629 80.3963 88.8598 80.1663 88.8598 80.013C88.8598 79.8597 88.7435 79.7256 88.5109 79.6106C88.2783 79.4956 87.8906 79.3806 87.3479 79.2656C86.2236 79.1506 85.1963 79.0931 84.2658 79.0931C83.568 79.0931 83.2191 79.1506 83.2191 79.2656H82.9865C82.7151 79.1506 81.9592 79.2273 80.7186 79.4956C79.5168 79.7639 78.8965 79.9747 78.8577 80.128C78.819 80.243 78.4119 80.4346 77.6366 80.703C76.8612 80.9713 76.3766 81.1054 76.1828 81.1054C75.8726 81.0287 75.5237 80.6646 75.136 80.013C74.7871 79.3614 74.6708 78.9015 74.7871 78.6332C74.9034 78.2882 76.1052 77.5791 78.3925 76.5059C79.1291 76.3143 80.3503 76.1801 82.0561 76.1035C83.8006 75.9885 85.08 75.9693 85.8941 76.046C89.3832 76.4293 91.3603 77.8666 91.8255 80.358C91.9418 80.7413 92 81.0862 92 81.3929C92 81.8145 91.8449 82.2169 91.5348 82.6002C91.2634 82.9452 90.6819 83.5201 89.7902 84.325L88.3946 85.2449C87.1153 86.0498 85.8553 86.7972 84.6147 87.4872C84.5372 87.5638 84.0526 87.8896 83.161 88.4645C82.153 89.0778 81.649 89.4419 81.649 89.5569C81.7265 89.6336 81.901 89.7677 82.1724 89.9594C82.4825 90.1127 82.7927 90.3235 83.1028 90.5918C84.1108 90.9368 85.08 91.5117 86.0104 92.3166C86.9408 93.0832 87.658 93.8114 88.162 94.5013C88.6272 95.5362 88.8598 96.5328 88.8598 97.491C88.8598 98.7175 88.4915 99.8674 87.7549 100.941C87.0571 101.975 85.991 102.915 84.5566 103.758C83.5099 104.333 82.2693 104.831 80.8349 105.253C79.4005 105.674 78.0436 105.923 76.7643 106Z" fill="#F4774C"/>
<circle cx="213" cy="37" r="37" fill="white"/>
<path d="M221.814 23.541C221.77 23.1367 221.688 22.7376 221.567 22.3493C221.504 22.166 221.306 22.2436 221.158 22.3916C220.673 21.3753 219.973 20.4768 219.106 19.7583C218.239 19.0399 217.226 18.5188 216.137 18.2313C214.474 17.8268 212.725 17.9551 211.138 18.598C210.541 18.6133 209.951 18.7252 209.389 18.9294C208.88 19.118 208.415 19.4083 208.021 19.7826C207.701 20.0035 207.403 20.2563 207.133 20.5371C206.435 21.1592 205.89 21.9337 205.539 22.8006C205.185 23.5238 205 24.3185 205 25.124C205 25.9295 205.185 26.7243 205.539 27.4475C205.709 27.7507 206.167 27.3064 206.103 27.0526C205.845 26.0753 205.802 25.0538 205.976 24.0581C206.15 23.0624 206.537 22.1162 207.112 21.2846C206.155 23.025 205.821 25.0403 206.167 26.9962V27.0596C206.163 27.0806 206.163 27.1021 206.167 27.1231C206.223 27.4122 206.773 27.0244 206.745 26.7917C206.717 26.559 206.71 26.4462 206.703 26.2769C206.844 26.5237 207.239 26.0795 207.253 25.9103C207.267 25.741 207.253 25.7128 207.253 25.6141C207.253 25.7481 207.253 25.882 207.309 26.0231C207.306 26.0441 207.306 26.0655 207.309 26.0865C207.38 26.3968 207.894 25.9596 207.887 25.7481C207.845 24.8159 208.012 23.8861 208.374 23.0262C208.489 22.8616 208.616 22.706 208.755 22.5609C209.178 22.2154 209.608 21.8557 210.059 21.5525C211.091 20.9758 212.232 20.6204 213.409 20.5089C214.664 20.3863 215.929 20.5903 217.082 21.1012C217.757 21.7527 218.244 22.5734 218.493 23.4775C218.739 24.4161 218.709 25.4059 218.407 26.3279C218.104 27.2499 217.541 28.0647 216.786 28.6744C215.907 29.2485 214.959 29.7104 213.966 30.0494C213.132 30.3992 212.357 30.8748 211.667 31.4597C210.394 32.5582 209.424 33.9635 208.846 35.5424C208.301 36.9719 208.023 38.4898 208.028 40.02C207.819 41.5856 207.737 43.1655 207.782 44.7444C207.65 44.7883 207.541 44.882 207.478 45.0053C207.429 45.1252 207.436 45.3085 207.605 45.3085H213.352C213.439 45.3 213.521 45.2688 213.592 45.218C213.663 45.1672 213.719 45.0987 213.754 45.0194C213.804 44.9066 213.796 44.7232 213.627 44.7232H213.557L213.246 39.9213C213.068 38.457 213.128 36.9736 213.423 35.5283C213.593 34.822 213.945 34.1727 214.445 33.6456C215.029 33.1108 215.693 32.6706 216.412 32.3411C217.823 31.6205 219.118 30.6936 220.255 29.591C220.559 29.2808 220.255 28.9705 219.945 29.2808L219.868 29.3513L219.973 29.2103C220.866 28.6806 221.517 27.8227 221.786 26.8199C222.062 25.7455 222.071 24.62 221.814 23.541ZM208.226 22.3282C208.094 22.4757 207.972 22.6311 207.859 22.7936C207.76 22.9557 207.775 23.0545 207.859 23.1109C207.944 23.1673 207.859 23.1673 207.824 23.2025C207.739 23.3506 207.662 23.4987 207.591 23.6538C207.684 23.0681 207.896 22.5077 208.214 22.0068C208.532 21.506 208.949 21.0755 209.439 20.7416C208.962 21.2094 208.556 21.7438 208.233 22.3282H208.226ZM210.948 33.3706C211.168 33.2187 211.405 33.091 211.653 32.9898C211.286 33.2992 210.951 33.644 210.652 34.0193C210.489 34.2309 210.574 34.3437 210.722 34.3507C210.563 34.5759 210.419 34.8115 210.292 35.0558H210.214C210.18 35.0677 210.149 35.0869 210.123 35.1123C210.177 34.4492 210.473 33.8292 210.955 33.3706H210.948ZM211.484 35.218C211.526 35.1193 211.561 35.0135 211.603 34.9148C211.646 34.8161 211.603 34.9148 211.603 34.8725L211.921 34.5975C211.808 35.1687 211.695 35.7328 211.589 36.3039L211.646 35.3591C211.681 35.211 211.596 35.1828 211.491 35.218H211.484ZM211.237 40.6687C211.237 40.8309 211.237 40.9931 211.237 41.1482C211.132 41.194 211.042 41.2671 210.976 41.3597C210.976 41.1976 210.976 41.0354 210.927 40.8803C211.047 40.8391 211.154 40.766 211.237 40.6687ZM210.828 35.5635C210.63 36.0642 210.447 36.5719 210.285 37.0937L210.369 36.2405C210.419 36.0924 210.482 35.9443 210.546 35.7962L210.828 35.5635ZM210.01 39.5264V39.4629H210.059C210.059 39.8437 210.01 40.2245 209.989 40.6053C209.989 40.7251 210.045 40.7604 210.137 40.7533C210.094 41.2892 210.059 41.8322 210.003 42.3681V42.2764C210.003 41.4796 210.003 40.6828 209.968 39.8931C209.968 39.8014 209.968 39.752 209.89 39.7379C209.945 39.676 209.988 39.6042 210.017 39.5264H210.01ZM209.425 38.9411L209.573 38.3418L209.432 39.752C209.432 39.8437 209.481 39.879 209.552 39.8931C209.489 39.9431 209.44 40.0087 209.411 40.0834C209.375 40.2527 209.347 40.429 209.312 40.5982C209.312 40.0694 209.368 39.5405 209.432 39.0117C209.439 38.9693 209.432 38.9552 209.432 38.9411H209.425ZM208.459 44.695C208.536 44.1239 208.628 43.5527 208.719 42.9816C208.719 43.4822 208.776 43.9829 208.832 44.4835H208.769C208.666 44.5214 208.577 44.5904 208.515 44.6809L208.459 44.695ZM212.464 40.852C212.499 40.2033 212.541 39.5616 212.605 38.9129C212.605 39.4559 212.661 39.9918 212.696 40.5065V40.6687C212.606 40.7079 212.528 40.7713 212.471 40.852H212.464ZM213.775 33.7302C213.698 33.8289 213.634 33.9276 213.564 34.0263C213.641 33.8007 213.712 33.568 213.796 33.3212C213.803 33.2934 213.803 33.2644 213.796 33.2366C213.973 33.1449 214.142 33.0462 214.311 32.9475C214.322 32.9706 214.339 32.9902 214.361 33.0039V33.0603C214.148 33.2656 213.954 33.4898 213.782 33.7302H213.775ZM215.101 30.9943C214.502 31.2622 213.895 31.5443 213.317 31.8616L212.837 32.0238C212.163 32.2335 211.515 32.5198 210.905 32.877C211.38 32.2889 211.939 31.7734 212.562 31.3468C214.248 30.2116 216.377 29.9366 217.788 28.3923C218.392 27.7244 218.835 26.9254 219.079 26.0581C219.324 25.1908 219.364 24.2786 219.198 23.3929C219.128 23.0857 219.029 22.7858 218.902 22.4974C219.187 22.8316 219.425 23.2043 219.607 23.6045C219.902 24.3311 220.08 25.0997 220.136 25.8821C219.768 26.8566 219.322 27.7999 218.803 28.7026C218.662 28.8718 218.507 29.034 218.352 29.1962C217.345 29.9214 216.256 30.525 215.108 30.9943H215.101ZM220.178 27.7224C220.078 27.9909 219.96 28.2523 219.825 28.5052C219.697 28.665 219.556 28.8137 219.402 28.9494C219.354 28.9897 219.318 29.0427 219.298 29.1025C219.278 29.1623 219.275 29.2265 219.289 29.2878C219.247 29.3381 219.22 29.3992 219.212 29.4641C219.184 29.5104 219.153 29.5551 219.12 29.5981H219.085L218.761 29.6545C218.845 29.5276 218.923 29.4007 219 29.2667C219.078 29.1327 219.275 28.9776 219.409 28.8225C219.634 28.5827 219.837 28.3231 220.016 28.0468C220.122 27.8846 220.1 27.7789 220.016 27.7295C220.072 27.6237 220.114 27.5039 220.171 27.391C220.192 27.5039 220.185 27.6167 220.185 27.7224H220.178Z" fill="#F4774C"/>
<path d="M213.634 48.8202C213.634 48.7285 213.577 48.665 213.479 48.665C211.598 48.73 209.726 48.9446 207.88 49.3067C207.74 49.3986 207.61 49.5049 207.492 49.624C207.401 49.7157 207.281 49.9131 207.393 50.033C207.428 50.0557 207.468 50.0679 207.51 50.0679C207.551 50.0679 207.592 50.0557 207.626 50.033C207.591 51.1683 207.626 52.2965 207.69 53.4247C207.69 53.8407 207.69 54.4612 208 54.7785C208.174 54.887 208.368 54.9587 208.57 54.989C208.773 55.0193 208.98 55.0077 209.177 54.9548L212.703 54.6516C213.14 54.6164 213.697 54.6516 213.972 54.2497C214.075 54.0551 214.117 53.8339 214.092 53.6151C214.092 53.3119 214.092 53.0157 214.092 52.7196C214.034 51.4104 213.881 50.1071 213.634 48.8202ZM211.751 50.724C211.863 51.4375 211.908 52.1599 211.885 52.8818L211.511 53.0016C211.52 52.2366 211.601 51.4741 211.751 50.724ZM210.694 51.7535L210.82 50.851C210.882 51.636 210.91 52.4187 210.905 53.199C210.764 53.2414 210.616 53.2625 210.468 53.2978C210.531 52.783 210.616 52.2683 210.694 51.7535ZM209.812 51.7535C209.812 52.3176 209.812 52.8747 209.812 53.4388H209.692C209.7 52.8794 209.744 52.3211 209.826 51.7676L209.812 51.7535ZM211.145 54.2215L209.819 54.3414C209.463 54.4038 209.101 54.4204 208.74 54.3907C208.665 54.3766 208.595 54.3441 208.536 54.2961C208.477 54.2481 208.431 54.1861 208.402 54.1157C208.493 54.0936 208.578 54.0501 208.649 53.9888C208.72 53.9275 208.775 53.8501 208.811 53.7632C208.881 53.3048 208.966 52.8535 209.043 52.4022C209.043 52.8888 209.079 53.3824 209.086 53.8689C209.086 53.889 209.09 53.9088 209.098 53.9273C209.106 53.9457 209.117 53.9624 209.132 53.9762C209.146 53.9901 209.163 54.0008 209.182 54.0078C209.201 54.0148 209.221 54.018 209.241 54.017C209.257 54.0339 209.277 54.0471 209.299 54.0557C209.321 54.0642 209.344 54.0678 209.368 54.0664H209.791V54.151C209.791 54.433 210.144 54.2638 210.299 54.0734L211.561 54.1087H212.217L211.145 54.2215ZM212.386 53.5164H211.49C211.617 53.4741 211.744 53.4458 211.871 53.3965C211.906 53.5023 212.054 53.5093 212.153 53.467C212.271 53.4113 212.365 53.3131 212.414 53.192C212.513 53.1426 212.619 53.0933 212.71 53.0369C212.71 53.2061 212.76 53.3753 212.781 53.5446L212.386 53.5164ZM213.493 54.0099C213.333 54.0196 213.173 54.0196 213.013 54.0099C213.14 53.9579 213.246 53.8664 213.317 53.7491C213.416 53.4878 213.416 53.1994 213.317 52.9382C213.317 52.7548 213.267 52.5644 213.246 52.3741C213.282 52.2553 213.299 52.1314 213.295 52.0074C213.246 51.1894 213.112 50.3503 213.013 49.5324C213 49.4153 212.977 49.2997 212.943 49.1868H213.042C213.183 49.9766 213.288 50.7734 213.352 51.5702C213.352 51.9862 213.415 52.4022 213.429 52.8253V53.4176C213.464 53.6276 213.485 53.8396 213.493 54.0523V54.0099Z" fill="#F4774C"/>
<path d="M289.459 328.136H273.527L271.402 372.746L273.527 383.368H293.708L289.459 328.136Z" fill="white"/>
<path d="M121.639 328.136H105.707V372.746V382.306L122.702 380.182L121.639 328.136Z" fill="white"/>
<path d="M272.284 323.162L270.311 263.962H292.017L293.991 317.242L292.017 323.162H272.284Z" fill="white"/>
<path d="M104.55 321.189L102.576 265.936H124.283V319.216L120.336 321.189H104.55Z" fill="white"/>
<path d="M134.152 374.47L130.205 269.883L264.393 267.91L266.366 376.444L134.152 374.47Z" fill="white"/>
<path d="M221.508 150.705L223.721 166.194H232.572L228.146 150.705H221.508Z" fill="white"/>
<path d="M177.252 150.705L175.039 166.194H166.188L170.614 150.705H177.252Z" fill="white"/>
<path d="M139.635 172.834L144.06 168.408H239.209L261.337 170.621L263.55 248.068L241.422 252.493L170.613 254.706L135.209 250.281L139.635 172.834Z" fill="white"/>
<path d="M139.619 244.679C139.901 244.35 139.901 244.35 139.878 244.045C139.532 239.468 139.492 234.867 139.474 230.572C139.509 222.896 139.566 215.526 139.905 207.828L140.337 201.35C140.337 201.35 140.204 195.529 140.399 189.99C140.29 184.473 142.329 177.195 142.07 177.828C141.683 168.65 140.589 162.288 137.423 177.259C136.525 181.623 133.83 188.337 133.237 192.679C132.644 197.02 132.264 200.118 132.264 200.118L131.925 207.817C131.585 215.515 131.551 223.19 131.517 230.866C131.557 235.466 131.598 240.067 131.944 244.644C131.967 244.95 132.295 245.232 132.295 245.232C135.669 249.274 138.537 246.602 139.619 244.679Z" fill="#F4774C"/>
<path d="M251.543 166.253C245.324 165.188 236.993 164.589 232.674 164.302C232.933 163.668 232.887 163.058 233.146 162.424C233.618 160.547 233.762 158.388 233.624 156.557C233.791 154.703 233.699 153.482 233.699 153.482L233.606 152.262L233.445 150.125L232.771 145.266L227.865 145.329L224.18 145.301C222.631 145.111 221.105 145.226 219.603 145.646L215.353 146.274L216.281 154.491L216.908 158.74C217.047 160.571 217.467 162.074 217.606 163.905L176.482 163.941C176.459 163.636 176.764 163.613 176.741 163.308C177.236 161.736 177.708 159.859 178.204 158.287C178.394 156.738 178.607 155.494 178.607 155.494C178.468 153.663 178.33 151.832 178.192 150.001L177.984 147.255L175.474 146.524C173.902 146.029 172.986 146.098 172.071 146.167C171.155 146.236 170.545 146.282 169.652 146.656C169.347 146.679 168.76 147.031 168.15 147.077L166.342 147.52L163.054 148.689L162.951 155.449C163.043 156.67 162.853 158.219 162.945 159.439C163.037 160.66 163.152 162.186 163.268 163.712C163.268 163.712 163.268 163.712 163.291 164.017L156.226 163.937L142.424 164.058C142.119 164.081 141.837 164.409 141.837 164.409C137.513 168.112 140.184 170.979 142.108 172.062C142.436 172.344 142.436 172.344 142.741 172.321L156.543 172.199L222.851 172.409L229.306 172.536C229.306 172.536 252.522 171.089 251.278 170.876C260.716 169.857 266.422 168.198 251.543 166.253ZM171.882 163.982C171.859 163.677 171.812 163.066 171.789 162.761C171.72 161.846 171.651 160.93 171.582 160.015C172.025 161.823 172.446 163.325 172.446 163.325C172.469 163.631 172.469 163.631 172.797 163.913L171.882 163.982ZM225.914 164.198C225.448 162.085 225.286 159.949 225.125 157.813L224.474 153.258L225.39 153.189L225.459 154.105C225.459 154.105 226.254 156.5 227.025 158.59C227.797 160.68 228.569 162.77 228.569 162.77C228.592 163.075 228.943 163.663 229.271 163.945L225.914 164.198Z" fill="#F4774C"/>
<path d="M265.984 227.16C265.967 222.865 266.041 219.79 266.041 219.79L265.465 212.161C265.102 203.288 264.762 194.72 265.032 186.106C265.32 181.788 265.584 177.164 266.177 172.823C266.154 172.517 266.131 172.212 265.826 172.235C263.016 167.537 259.469 169.339 258.082 171.286C257.799 171.614 257.799 171.614 257.822 171.919C257.253 176.566 256.683 181.212 256.441 186.141C256.194 195.06 256.252 203.956 256.92 212.806L257.427 219.52C257.427 219.52 258.17 225.295 258.89 230.765C259.61 236.235 260.331 241.705 260.307 241.4C260.797 243.818 260.958 245.955 261.379 247.457C260.158 247.55 258.609 247.359 256.778 247.498C247.882 247.556 235.324 247.89 235.324 247.89L227.718 248.772C203.327 250.921 177.532 251.183 152.911 250.28C148.287 250.016 140.125 246.662 135.501 246.397C135.196 246.42 134.914 246.748 134.914 246.748C130.567 250.146 132.957 253.341 134.575 254.447C134.903 254.729 134.903 254.729 135.208 254.706C139.832 254.97 150.523 256.959 155.124 256.919C180.05 257.798 203.644 259.183 228.645 256.988L235.359 256.481C235.359 256.481 236.885 256.366 238.998 255.9C241.111 255.433 243.835 254.92 246.863 254.385C252.615 253.337 258.039 252.006 257.429 252.052C259.542 251.586 261.327 250.837 262.83 250.417C263.158 250.699 263.463 250.676 263.417 250.065C266.4 248.92 267.551 247.912 264.148 247.555C264.338 246.006 264.81 244.129 264.908 241.359C265.783 236.69 266.001 231.456 265.984 227.16Z" fill="#F4774C"/>
<path d="M165.984 187.447C167.464 186.721 168.685 186.629 169.952 187.147C169.952 187.147 170.234 186.819 170.539 186.796C172.301 185.742 174.063 184.688 174.253 183.139C174.465 181.895 173.717 180.111 172.732 179.264C172.404 178.982 172.404 178.982 172.099 179.005C168.978 178.32 165.621 178.574 162.639 179.72C159.656 180.866 157.353 182.881 155.683 185.155C153.449 188.086 151.918 192.192 152.24 196.464C152.31 197.38 152.707 198.577 152.776 199.493C153.151 200.385 153.525 201.278 153.899 202.17C154.625 203.65 155.984 205.389 157.32 206.823C159.617 208.797 162.479 210.116 165.577 210.496C165.577 210.496 167.736 210.639 170.459 210.127C173.183 209.614 176.424 207.835 179.01 205.491C180.138 204.178 181.267 202.866 182.067 201.271C182.867 199.676 183.362 198.104 183.27 196.883C183.368 194.113 182.619 192.329 182.642 192.634C181.496 189.651 179.222 187.981 177.627 187.181C176.032 186.381 174.788 186.168 174.178 186.214C173.568 186.26 173.919 186.847 174.621 188.022C174.949 188.304 175.278 188.586 175.301 188.891C175.629 189.173 175.98 189.761 176.308 190.043C176.988 190.912 177.69 192.087 177.806 193.613C178.364 196.947 174.933 200.275 171.95 201.421C170.47 202.146 168.945 202.262 168.029 202.331C167.114 202.4 166.503 202.446 166.503 202.446C164.977 202.561 163.382 201.761 162.398 200.914C161.741 200.35 161.062 199.481 160.664 198.283C160.313 197.696 160.29 197.391 159.962 197.109C159.939 196.803 159.588 196.216 159.87 195.888C159.731 194.057 160.204 192.18 161.591 190.234C163.33 188.875 164.787 187.844 165.984 187.447Z" fill="#F4774C"/>
<path d="M243.63 191.405C243.278 190.818 243.255 190.513 243.255 190.513C241.522 187.881 239.576 186.494 237.699 186.022C236.104 185.221 234.86 185.008 234.272 185.36C233.662 185.406 234.014 185.993 234.716 187.168C235.372 187.732 236.029 188.296 236.708 189.166C237.388 190.035 238.395 191.187 238.816 192.689C239.19 193.582 239.236 194.192 239 195.131C238.741 195.764 238.505 196.703 237.941 197.359C237.118 198.649 235.356 199.703 233.876 200.428C232.396 201.154 230.87 201.269 229.978 201.643C229.062 201.713 228.452 201.759 228.452 201.759C226.621 201.897 225.049 201.402 223.782 200.884C222.164 199.778 221.087 197.711 220.903 195.27C220.811 194.049 220.742 193.134 221.283 192.172C221.519 191.233 222.083 190.577 222.93 189.592C224.927 187.6 228.849 186.69 232.58 187.329C232.885 187.306 233.167 186.978 233.167 186.978C235.211 185.596 236.317 183.978 236.224 182.757C236.132 181.536 235.102 180.08 234.117 179.233C233.789 178.951 233.789 178.951 233.483 178.974C230.691 178.571 227.944 178.779 225.244 179.596C222.52 180.109 219.866 181.537 217.258 183.576C215.542 185.24 214.154 187.186 213.4 189.391C212.646 191.597 212.525 194.061 212.686 196.197C213.153 198.31 213.314 200.447 214.391 202.514C215.468 204.581 216.85 206.625 219.101 207.989C221.681 209.636 224.802 210.321 227.571 210.419C227.571 210.419 229.402 210.28 232.126 209.768C234.521 208.973 237.786 207.499 240.348 204.85C242.933 202.506 244.793 198.683 244.257 195.655C244.378 193.19 244.004 192.298 243.63 191.405Z" fill="#F4774C"/>
<path d="M246.036 224.28L245.731 224.303C244.793 224.067 243.877 224.137 242.962 224.206C241.695 223.688 234.603 226.329 230.262 225.736C221.579 224.551 209.847 224.771 209.847 224.771L202.172 224.737L177.315 224.773L161.102 219.465C160.797 219.489 160.515 219.817 160.515 219.817C159.081 221.153 158.235 222.137 158.327 223.358C147.646 224.164 157.106 223.45 153.749 223.704C153.772 224.009 153.772 224.009 153.796 224.314C153.842 224.924 153.888 225.535 153.957 226.45C154.072 227.976 153.882 229.525 153.882 229.525C153.882 229.525 155.241 231.264 155.546 231.241C155.875 231.523 156.508 231.782 157.141 232.041C156.974 233.895 158.615 235.306 159.6 236.152C159.928 236.434 159.928 236.434 160.233 236.411L176.446 241.719L202.829 241.568L209.261 241.389C209.261 241.389 232.477 239.943 231.233 239.73C233.064 239.591 238.557 234.973 239.778 234.881C240.129 235.468 240.458 235.75 240.458 235.75C241.442 236.597 243.319 237.069 245.035 235.405C246.187 234.397 246.987 232.802 246.987 232.802C246.987 232.802 246.826 230.666 246.687 228.835C246.618 227.919 246.036 224.28 246.48 226.088C246.06 224.585 246.036 224.28 246.036 224.28ZM239.087 232.505C238.148 232.269 232.413 235.037 231.169 234.824C220.514 236.411 208.742 236.411 208.742 236.411L179.36 235.75L169.439 234.826L162.474 227.862C164.916 227.677 230.739 231.242 229.8 231.006C231.021 230.914 237.849 228.302 238.741 227.927C238.787 228.538 238.856 229.453 238.902 230.064C238.972 230.979 239.041 231.895 239.087 232.505Z" fill="#F4774C"/>
<path d="M223.083 323.578C222.369 325 221.132 326.736 219.894 328.472C218.657 330.207 217.127 331.692 215.596 333.176L211.55 337.587C210.796 338.465 210.02 339.071 209.265 339.949C208.783 340.806 208.007 341.412 207.525 342.27L204.547 346.327L203.812 347.477L203.581 348.042L203.33 348.334L206.847 347.795C211.453 347.174 216.059 346.552 220.686 346.203L222.591 346.059L224.224 345.935L227.51 345.961C229.687 345.797 231.885 345.904 233.811 346.033L234.627 345.971L235.444 345.909L236.281 346.12L239.608 346.69L241.261 346.838L242.098 347.049L242.643 347.008L242.915 346.987C242.915 346.987 242.915 346.987 242.894 346.715L242.92 343.429L242.945 340.142L243.053 337.945L243.351 334.638C243.566 330.242 244.054 325.826 244.542 321.41C245.029 316.994 245.224 312.326 244.854 307.428C244.669 304.978 244.505 302.801 244.027 300.1C243.945 299.011 243.59 297.943 243.236 296.875L242.841 295.263L242.507 294.467L242.486 294.195C242.486 294.195 242.486 294.195 242.214 294.216L241.67 294.257L235.914 294.144L209.058 293.709L195.64 293.627C190.972 293.432 186.87 293.468 182.474 293.253C178.079 293.038 173.411 292.843 168.512 293.213C167.424 293.295 166.063 293.397 164.995 293.752C164.178 293.813 163.09 293.896 162.001 293.978C160.913 294.06 159.28 294.183 157.416 294.872C155.552 295.56 154.042 297.316 153.328 298.738C151.629 301.604 151.562 304.346 151.203 306.836C151.116 309.306 151.301 311.756 151.193 313.953L151.44 317.219C151.501 318.036 151.311 319.145 151.394 320.233L151.363 327.078C151.399 331.181 151.456 335.556 151.764 339.638C151.785 339.91 152.077 340.162 152.077 340.162C153.561 341.692 154.671 341.882 155.759 341.8C154.44 342.447 156.427 343.392 163.606 344.218C167.477 344.747 172.166 345.214 176.037 345.743C176.874 345.953 177.963 345.871 178.528 346.102C179.365 346.312 179.909 346.271 180.453 346.23C181.563 346.42 182.379 346.358 182.379 346.358C183.76 346.528 185.414 346.677 187.047 346.553C187.863 346.492 188.7 346.702 189.517 346.641C190.605 346.558 191.694 346.476 193.055 346.373C193.599 346.332 194.395 345.998 194.939 345.957C195.483 345.916 196.531 345.29 197.055 344.977C199.401 343.431 200.911 341.674 202.169 340.211L203.678 338.455C204.182 337.869 204.433 337.577 205.188 336.699L208.207 333.186C210.22 330.845 212.253 328.775 214.287 326.706C216.32 324.636 218.646 322.818 220.741 321.565C221.789 320.939 222.857 320.584 223.673 320.523C223.945 320.502 224.217 320.482 224.217 320.482C224.217 320.482 224.217 320.482 224.489 320.461L224.782 320.713C224.782 320.713 224.782 320.713 224.803 320.985C223.796 322.156 223.565 322.72 223.083 323.578ZM230.98 319.423C230.626 318.355 230.271 317.287 229.393 316.533C228.495 315.506 227.344 314.771 225.942 314.33C224.54 313.888 223.159 313.719 222.071 313.801C219.621 313.986 217.778 314.946 216.207 315.886C213.064 317.766 210.759 319.856 208.201 322.239C205.917 324.601 203.904 326.942 201.891 329.284L198.872 332.796C198.62 333.089 197.865 333.967 197.362 334.553L195.853 336.309C194.846 337.48 193.568 338.671 192.792 339.277C192.269 339.59 192.269 339.59 191.473 339.924C190.928 339.965 190.132 340.299 189.588 340.34C189.316 340.361 188.772 340.402 188.5 340.422L188.227 340.443L187.683 340.484L186.867 340.546C185.506 340.648 184.397 340.458 183.016 340.289C183.016 340.289 181.655 340.392 179.729 340.263C177.552 340.428 175.103 340.613 172.633 340.526C167.734 340.896 162.563 341.286 163.107 341.245C160.386 341.451 158.229 341.887 156.617 342.282C157.392 341.677 157.895 341.091 158.378 340.234C158.63 339.941 158.63 339.941 158.609 339.669C158.321 335.859 158.285 331.756 158.27 327.925L158.321 321.352C158.239 320.264 158.428 319.155 158.326 317.794L158.058 314.256C157.894 312.079 157.73 309.902 157.858 307.976C157.986 306.05 158.387 304.104 158.869 303.247C159.1 302.682 159.373 302.661 159.624 302.368C159.896 302.348 160.692 302.014 161.508 301.953C162.597 301.87 163.686 301.788 165.047 301.685C166.135 301.603 167.203 301.249 168.02 301.187C172.102 300.879 176.497 301.094 180.893 301.31C185.288 301.525 190.208 301.427 194.331 301.663L207.749 301.745L234.332 302.201L235.149 302.139C235.565 304.023 235.729 306.201 235.894 308.378C236.202 312.46 235.986 316.856 235.499 321.272C235.283 325.667 234.796 330.083 234.329 334.772L234.052 338.351L234.134 339.439L233.025 339.249C230.555 339.162 228.357 339.054 225.887 338.967C224.798 339.049 223.71 339.132 222.329 338.962L219.063 339.209L219.566 338.624C221.075 336.867 222.606 335.383 224.095 333.355C225.604 331.599 227.093 329.57 228.269 327.018C229.003 325.868 229.445 324.466 229.573 322.54C231.144 321.601 231.062 320.512 230.98 319.423Z" fill="#F4774C"/>
<path d="M303.805 392.202C302.279 390.127 300.775 388.325 299.019 386.815C298.141 386.061 297.262 385.306 296.133 384.844C296.092 384.299 295.506 383.796 294.356 383.062C292.348 381.845 289.544 380.962 289.544 380.962C289.544 380.962 285.149 380.747 280.774 380.803C278.576 380.695 276.399 380.86 274.745 380.711C274.473 380.732 273.929 380.773 273.657 380.793C273.616 380.249 273.867 379.956 273.826 379.412C274.884 371.669 275.674 360.387 275.674 360.387L275.705 353.542L275.596 341.234C275.601 337.675 275.334 334.137 275.359 330.851C280.279 330.753 287.668 330.742 287.668 330.742C287.668 330.742 287.94 330.722 288.484 330.681L288.572 342.717L288.67 347.636L288.829 353.372C288.829 353.372 290.119 374.076 290.33 373.239C291.218 381.383 292.893 388.119 294.356 374.871C295.413 367.127 296.301 354.45 296.301 354.45L296.331 347.605L296.233 342.686L296.125 330.377C296.104 330.105 295.812 329.854 295.812 329.854C295.226 329.351 294.913 328.827 294.328 328.323C295.083 327.445 295 326.357 292.741 325.433C293.013 325.412 293.013 325.412 292.992 325.14C294.836 324.18 296.094 322.716 292.956 321.037C290.948 319.82 288.437 319.189 288.437 319.189C288.437 319.189 275.313 319.359 272.571 319.292C272.76 318.183 273.181 316.509 273.31 314.583C274.347 306.568 274.865 295.307 274.865 295.307L274.623 288.482L274.222 275.922C274.227 272.364 273.98 269.098 273.985 265.54C278.632 265.462 287.11 265.369 287.11 265.369C287.11 265.369 288.178 265.015 289.246 264.661L289.314 276.425L289.509 286.263L289.669 291.999C289.669 291.999 290.958 312.703 291.169 311.866C292.058 320.01 293.829 325.35 295.292 312.102C296.35 304.359 297.14 293.077 297.14 293.077L297.17 286.232L297.247 276.373L297.139 264.065C297.118 263.793 296.825 263.541 296.825 263.541C295.927 262.514 295.049 261.759 294.212 261.549C294.171 261.005 293.564 260.229 292.435 259.767C290.427 258.55 287.916 257.919 287.916 257.919C287.916 257.919 271.777 258.043 271.505 258.063C271.505 258.063 271.525 258.335 271.253 258.356C271.043 259.193 270.832 260.03 270.894 260.846C269.24 260.698 267.962 261.889 267.228 263.039C266.976 263.332 266.976 263.332 266.997 263.604C267.099 264.965 266.909 266.074 267.012 267.435C264.711 265.966 262.658 267.763 261.944 269.186C261.692 269.479 261.692 269.479 261.713 269.751L261.821 282.059L262.256 345.799L262.415 351.535C262.415 351.535 263.705 372.239 263.915 371.402C264.059 373.307 264.455 374.919 264.558 376.28C263.156 375.839 261.502 375.69 259.012 375.33C251.248 374.001 239.946 372.938 239.946 372.938L196.407 372.668C188.452 372.448 180.247 372.52 172.272 372.028L166.223 371.663C164.026 371.556 162.12 371.7 159.923 371.592C155.82 371.628 151.717 371.664 147.886 371.68C143.784 371.716 139.932 371.459 136.061 370.93C135.788 370.951 135.537 371.244 135.537 371.244C133.966 372.183 133.211 373.061 133.021 374.171C133.462 372.769 133.591 370.843 133.929 368.081C134.987 360.337 135.777 349.056 135.777 349.056L135.808 342.211L135.43 282.846L135.465 272.442L144.215 272.329C152.149 272.277 160.062 271.953 167.995 271.902C171.826 271.886 175.929 271.85 179.78 272.106C183.631 272.363 187.755 272.599 191.857 272.563C199.811 272.783 208.017 272.711 215.93 272.387L227.946 272.027L235.859 271.703C235.859 271.703 256.48 269.325 255.392 269.407C263.515 268.246 268.835 266.202 255.356 265.304C247.361 264.54 236.12 264.294 236.12 264.294L228.752 264.576L216.736 264.936C208.551 265.281 200.617 265.333 192.663 265.112C188.56 265.148 184.709 264.892 180.586 264.656C176.462 264.42 172.36 264.456 168.257 264.492C160.051 264.564 151.846 264.636 143.933 264.96L131.896 265.048C131.624 265.069 131.372 265.361 131.372 265.361C129.822 266.573 129.36 267.703 129.442 268.792L129.55 266.594C129.529 266.322 129.236 266.07 129.236 266.07C129.236 266.07 129.216 265.798 128.944 265.819C129.195 265.526 129.447 265.233 129.699 264.94C129.909 264.103 129.303 263.328 127.608 262.635C125.601 261.418 122.525 260.555 122.525 260.555C119.511 260.509 116.224 260.484 113.21 260.438C111.577 260.561 110.196 260.392 108.563 260.515C107.747 260.577 106.93 260.638 106.114 260.7C105.569 260.741 105.297 260.762 104.753 260.803C104.481 260.823 104.209 260.844 103.936 260.865C103.664 260.885 103.664 260.885 103.14 261.198C102.868 261.219 102.617 261.511 102.617 261.511C101.821 261.845 101.066 262.723 100.855 263.56L100.624 264.125L100.666 264.67C100.686 264.942 100.707 265.214 100.727 265.486C100.748 265.758 100.748 265.758 100.768 266.03C100.789 266.303 101.082 266.554 101.102 266.826C101.395 267.078 101.415 267.35 101.688 267.329L101.755 279.094L101.74 289.769L101.899 295.505C101.899 295.505 103.189 316.209 103.4 315.372C103.96 319.161 104.458 322.135 105.084 323.182C105.126 323.726 105.146 323.999 105.187 324.543C105.187 324.543 105.208 324.815 104.935 324.835C104.746 325.945 104.576 327.326 104.638 328.142C103.298 328.517 102.543 329.395 102.06 330.253C101.809 330.546 101.809 330.546 101.829 330.818L101.938 343.126L102.076 348.59L102.236 354.326C102.236 354.326 103.526 375.03 103.736 374.193C103.921 376.642 104.358 378.799 104.753 380.411L104.774 380.683C104.101 382.65 104.225 384.283 104.327 385.644C103.804 385.957 103.531 385.977 103.008 386.291C101.185 387.523 99.6546 389.007 98.1245 390.491C96.8871 392.227 95.629 393.69 94.6843 395.678C92.7743 399.38 91.4292 403.313 90.9005 407.185L90.5 409.131C90.5411 409.676 90.31 410.241 90.3511 410.785L90.2023 412.438L90.3256 414.071C90.3256 414.071 90.3462 414.343 90.4078 415.16C90.449 415.704 90.5311 416.793 90.8855 417.861C91.322 420.017 92.6368 422.929 94.4547 425.255C96.2726 427.581 98.5936 429.322 100.309 430.287C102.024 431.252 103.154 431.714 103.133 431.442C107.359 433.039 110.918 433.044 111.714 432.71C111.986 432.69 111.965 432.417 111.945 432.145C113.013 431.791 114.06 431.164 114.543 430.307C114.794 430.014 114.794 430.014 114.774 429.742L115.092 426.707L115.261 425.326L115.431 423.944L115.749 420.91L112.673 420.047C112.108 419.816 111.564 419.857 111.271 419.606L110.706 419.375C110.121 418.871 109.556 418.64 108.971 418.137C107.779 416.859 106.547 415.036 105.859 413.172C105.525 412.376 105.443 411.287 105.381 410.471L105.258 408.838L105.427 407.457C105.956 403.585 108.472 400.658 112.179 399.009C114.043 398.321 116.2 397.885 118.105 397.741C120.282 397.576 121.956 397.997 123.651 398.69C125.345 399.384 126.537 400.662 127.476 402.233C128.416 403.805 129.104 405.669 128.976 407.594C129.264 411.404 127.667 415.63 124.545 417.782L124.293 418.075L124.021 418.095L123.77 418.388L122.198 419.328L120.627 420.268L120.376 420.56L120.103 420.581L120.124 420.853L120.458 421.649C120.812 422.717 121.187 424.057 121.541 425.125L122.271 427.533C123 429.942 123.729 432.35 124.459 434.758L125.147 436.622L125.419 436.602L125.67 436.309L126.446 435.703C127.493 435.077 128.541 434.45 129.568 433.551L132.69 431.4C132.941 431.107 133.213 431.086 133.465 430.794L133.968 430.208L134.744 429.602C135.771 428.704 136.798 427.805 137.804 426.634C139.565 424.585 141.285 421.992 142.461 419.44C144.792 414.064 145.136 407.742 143.343 402.13C141.407 394.612 136.246 387.886 129.134 384.318C130.161 383.419 130.079 382.33 127.799 381.134C126.941 380.651 125.812 380.189 124.975 379.979C125.519 379.938 126.15 377.427 126.828 371.901C127.885 364.158 128.676 352.876 128.676 352.876L128.706 346.031L128.691 342.201L128.582 329.892C128.562 329.62 128.269 329.369 128.269 329.369C127.663 328.593 127.077 328.09 126.513 327.859C126.471 327.315 126.138 326.519 124.715 325.805C126.056 325.43 129.301 324.911 129.301 324.911C129.573 324.891 129.573 324.891 129.825 324.598L130.01 341.554L130.17 347.289C130.17 347.289 131.46 367.993 131.67 367.156C132.415 373.395 133.581 377.96 134.633 373.775C134.654 374.047 134.674 374.32 134.695 374.592C134.798 375.952 135.696 376.979 136.554 377.462C136.847 377.714 136.846 377.714 137.119 377.693C141.263 378.201 145.658 378.417 149.761 378.381C152.775 378.427 155.769 378.201 158.783 378.247C158.321 379.376 158.152 380.758 158.213 381.574C157.125 381.656 156.349 382.262 155.825 382.576C155.553 382.596 155.553 382.596 155.574 382.868C155.615 383.413 156.556 413.996 156.556 413.996C156.556 413.996 158.092 423.46 158.323 422.895C158.657 423.691 158.739 424.779 159.052 425.303C158.169 428.107 158.878 430.243 159.504 431.291L159.525 431.563C159.314 432.4 159.356 432.944 159.397 433.488C158.267 433.026 157.45 433.088 156.927 433.401C156.655 433.422 156.655 433.422 156.675 433.694C156.465 434.531 155.977 438.947 156.054 443.594C155.859 448.262 155.916 452.637 155.916 452.637C155.916 452.637 157.144 458.018 157.395 457.725C157.395 457.725 157.395 457.725 157.416 457.998C154.946 457.91 152.224 458.116 149.523 458.594C147.095 459.051 144.394 459.528 141.754 460.822C141.231 461.136 140.435 461.47 139.931 462.055L138.884 462.681L138.129 463.56C137.123 464.73 136.137 466.173 135.695 467.575C134.54 470.399 134.494 473.414 134.72 476.407C135.218 479.38 136.261 482.312 138.623 484.597C139.522 485.624 140.965 486.61 142.367 487.052C144.061 487.745 145.422 487.642 146.531 487.832C149.001 487.919 151.158 487.483 153.063 487.339C153.335 487.318 153.586 487.026 153.586 487.026C154.865 485.834 155.327 484.704 155.245 483.616C155.537 483.867 155.81 483.847 156.375 484.078C157.756 484.247 159.681 484.376 163.009 484.945C166.881 485.474 171.589 486.213 175.441 486.47C179.312 486.999 182.306 486.772 182.306 486.772C183.667 486.67 184.755 486.588 186.096 486.213L187.98 485.797L189.069 485.714L189.613 485.673L190.409 485.339C192.817 484.61 195.77 483.84 198.347 481.729C199.123 481.123 199.857 479.973 200.34 479.115L200.36 479.388C200.966 480.163 201.279 480.687 201.885 481.462C202.471 481.965 203.056 482.468 203.642 482.972C205.942 484.44 208.453 485.072 210.399 485.472C212.618 485.852 214.836 486.232 216.762 486.36C217.034 486.34 217.285 486.047 217.285 486.047C219.108 484.814 219.842 483.664 219.76 482.575C220.032 482.555 220.325 482.807 220.869 482.765C222.251 482.935 224.176 483.063 227.463 483.089C231.334 483.617 236.043 484.357 239.894 484.613C243.746 484.87 246.739 484.644 246.739 484.644C248.1 484.541 249.44 484.166 250.529 484.084C251.073 484.043 251.869 483.709 252.413 483.668L253.481 483.313C253.754 483.293 253.754 483.293 254.026 483.272L254.822 482.938C256.958 482.23 259.869 480.915 261.882 478.573C263.895 476.232 265.029 473.135 264.783 469.87C264.659 468.237 264.285 466.896 263.91 465.556C263.263 464.237 262.888 462.896 261.989 461.869C260.443 459.523 257.557 457.551 254.774 456.94C251.991 456.329 249.521 456.242 247.344 456.407C246.255 456.489 245.146 456.299 244.057 456.381C244.581 456.068 244.812 455.503 245.295 454.645C246.24 452.658 246.306 449.916 246.306 449.916C246.306 449.916 246.224 448.827 245.849 447.487C245.474 446.147 245.31 443.97 244.894 442.085C244.75 440.18 244.334 438.296 244.503 436.914C244.401 435.554 244.611 434.717 244.59 434.445C244.59 434.445 244.318 434.465 244.298 434.193C242.331 433.52 240.405 433.392 239.065 433.767C238.752 433.243 237.894 432.761 236.765 432.299C234.485 431.102 231.137 430.26 231.137 430.26C231.137 430.26 229.755 430.091 227.85 430.235C225.925 430.106 223.183 430.04 220.441 429.973C217.699 429.907 214.705 430.133 212.528 430.297C212.256 430.318 211.983 430.338 211.711 430.359C211.691 430.086 211.67 429.814 211.398 429.835L211.377 429.563C217.113 429.403 233.817 429.51 233.817 429.51C233.817 429.51 241.103 428.139 240.831 428.16C243.784 427.389 245.566 425.612 240.795 424.057C237.971 422.901 234.079 422.101 234.079 422.101C234.079 422.101 219.845 422.081 213.02 422.323C213.03 415.205 212.834 390.861 212.834 390.861C212.834 390.861 212.069 384.35 211.632 382.193C217.368 382.034 232.963 381.951 232.963 381.951C232.963 381.951 235.391 381.493 237.276 381.077C237.337 381.894 237.44 383.255 237.564 384.888C237.79 387.881 237.805 391.712 237.821 395.543C237.836 399.373 237.872 403.476 237.826 406.49C237.78 409.504 237.924 411.409 237.924 411.409C237.924 411.409 237.965 411.954 238.32 413.022C238.381 413.838 238.756 415.179 239.111 416.247C239.568 418.675 240.831 424.068 240.831 424.068C241.52 425.932 242.181 424.833 242.725 424.792C243.562 425.003 244.292 423.245 244.61 420.21C244.739 418.285 245.118 416.067 245.267 414.413C245.416 412.76 245.586 411.378 245.586 411.378C245.586 411.378 245.442 409.473 245.488 406.459C245.534 403.445 245.518 399.614 245.482 395.511C245.446 391.409 245.41 387.306 245.163 384.04C244.917 380.774 244.48 378.617 244.48 378.617C246.113 378.494 248.018 378.35 249.944 378.479C254.863 378.381 259.762 378.011 259.489 378.031C262.211 377.826 264.388 377.662 266.001 377.266C266.668 378.858 267.233 379.089 267.865 376.578L267.844 376.306C268.013 374.924 268.434 373.25 268.773 370.488C269.091 367.453 269.389 364.146 269.707 361.111C270.118 366.554 270.771 378.822 271.002 378.257C271.146 380.162 271.541 381.774 271.644 383.135C269.801 384.095 267.978 385.328 266.427 386.54C262.571 389.842 259.906 394.422 258.895 399.151C258.433 400.281 258.263 401.662 258.346 402.751L258.176 404.132C258.197 404.405 258.197 404.405 258.217 404.677L258.089 406.602L258.233 408.507L258.377 410.412C258.377 410.412 258.397 410.685 258.731 411.48C258.772 412.025 259.126 413.093 259.46 413.889C260.169 416.025 261.191 418.685 263.009 421.011C266.121 425.976 270.722 428.913 270.409 428.389C274.152 430.844 278.024 431.372 278.82 431.039C279.092 431.018 279.072 430.746 278.758 430.222C280.412 430.371 281.69 429.18 282.424 428.029C282.676 427.737 282.676 427.737 282.656 427.464L282.563 418.987L282.501 418.17L282.48 417.898L282.208 417.919L280.806 417.477C279.969 417.267 278.86 417.077 277.751 416.887L276.914 416.676C276.642 416.697 276.621 416.425 276.349 416.445C276.057 416.193 275.784 416.214 275.492 415.962C274.341 415.228 273.463 414.473 273.088 413.133C272.713 411.793 272.611 410.432 272.76 408.779C273.329 405.451 275.28 402.293 277.565 399.931C280.123 397.548 283.306 396.213 286.32 396.259C286.592 396.239 287.137 396.198 287.43 396.449C287.702 396.429 288.267 396.66 288.539 396.639C289.104 396.87 289.94 397.081 290.526 397.584C291.948 398.297 293.14 399.576 294.059 400.875C295.897 403.473 296.709 406.97 295.805 409.502C295.595 410.339 295.323 410.359 295.092 410.924C294.84 411.217 294.316 411.53 293.269 412.157C292.493 412.763 290.902 413.43 289.644 414.894C289.161 415.751 288.658 416.337 288.175 417.194C287.692 418.052 287.482 418.889 287.544 419.705C287.395 421.359 287.498 422.719 287.872 424.06C287.934 424.876 288.684 427.557 289.624 429.128L290.918 431.767L291.565 433.087L291.585 433.359L291.837 433.066L292.633 432.732L295.272 431.438C296.068 431.104 297.116 430.478 297.891 429.872C299.986 428.619 300.489 428.034 301.537 427.407C302.291 426.529 303.318 425.63 304.073 424.752C305.855 422.975 307.051 420.695 307.976 418.436C308.9 416.176 309.531 413.665 309.911 411.447C310.27 408.957 310.358 406.487 309.921 404.33C308.293 400.895 306.562 396.099 303.805 392.202ZM134.943 406.87C134.84 405.509 134.717 403.876 134.342 402.536C134.676 403.332 134.717 403.876 135.05 404.672C136.196 408.965 135.96 413.088 134.342 417.042C133.398 419.03 132.432 420.745 130.902 422.229C130.147 423.107 129.372 423.713 128.617 424.591L127.842 425.197L127.467 423.857L127.991 423.543C132.874 419.343 135.123 412.878 134.943 406.87ZM105.423 425.521L106.28 426.004L106.301 426.276L106.255 429.29C105.67 428.787 104.833 428.577 104.247 428.074C102.804 427.088 101.341 425.83 100.129 424.279C98.9168 422.728 97.977 421.157 97.6021 419.817C96.955 418.497 96.8523 417.137 96.77 416.048C96.6878 414.959 96.6467 414.415 96.6467 414.415C96.544 413.054 96.4413 411.693 96.6107 410.312L96.6518 410.856C96.7751 412.489 97.1704 414.102 97.5454 415.442C98.5879 418.374 100.154 420.993 102.244 423.298C103.102 423.781 104.273 424.787 105.423 425.521ZM123.055 390.798C122.218 390.588 121.653 390.357 120.816 390.146L118.597 389.766C117.781 389.828 117.237 389.869 116.4 389.658C113.406 389.885 110.705 390.362 107.794 391.677C105.93 392.365 104.107 393.598 102.556 394.809C103.311 393.931 104.086 393.325 104.862 392.719C107.188 390.901 110.099 389.587 113.365 389.34C116.631 389.094 119.938 389.391 122.762 390.546C122.783 390.819 123.055 390.798 123.055 390.798ZM121.385 372.312C121.965 376.374 122.505 379.891 123.09 380.395C121.96 379.933 121.416 379.974 121.416 379.974C121.416 379.974 110.468 379.979 105.821 380.057C105.991 378.675 106.391 376.729 106.75 374.239C107.808 366.495 108.598 355.214 108.598 355.214L108.629 348.369L108.49 342.905L108.464 331.685C112.839 331.629 119.139 331.7 119.139 331.7C119.139 331.7 119.411 331.68 119.935 331.366L119.961 342.586L119.977 346.417L120.136 352.153C119.885 352.445 121.174 373.149 121.385 372.312ZM121.432 278.703L121.355 288.562L121.243 294.318C121.243 294.318 121.633 299.489 121.751 304.68C122.142 309.851 122.512 314.75 122.471 314.205C122.615 316.11 123.01 317.723 123.113 319.084C122.841 319.104 122.548 318.852 122.548 318.852C122.548 318.852 118.152 318.637 113.485 318.442C111.287 318.334 108.817 318.247 107.184 318.371C106.64 318.412 106.096 318.453 105.551 318.494C105.762 317.657 105.7 316.84 105.89 315.731C106.948 307.988 107.738 296.706 107.738 296.706L107.768 289.861L107.783 279.186L107.757 267.966C109.118 267.863 110.499 268.033 111.86 267.93C114.874 267.976 117.888 268.022 120.903 268.068C120.903 268.068 120.902 268.068 121.175 268.047L121.432 278.703ZM127.924 321.183C127.067 320.701 126.502 320.47 125.937 320.239C126.107 318.857 126.528 317.183 126.615 314.714C126.912 311.407 127.462 307.807 127.739 304.228L127.924 321.183ZM160.29 423.568C161.383 419.927 161.83 414.966 161.83 414.966C161.83 414.966 161.023 393.405 160.719 385.764C167.836 385.774 181.505 385.563 181.505 385.563C181.505 385.563 185.023 385.024 187.18 384.587C186.969 385.424 187.072 386.785 186.902 388.166C186.877 391.452 186.641 395.576 186.949 399.658C186.985 403.761 187.294 407.843 187.52 410.837C187.746 413.83 187.89 415.735 187.89 415.735C187.89 415.735 188.347 418.164 188.804 420.593C189.261 423.022 189.698 425.179 189.677 424.906C190.011 425.702 190.072 426.519 190.386 427.043C190.093 426.791 189.528 426.56 188.691 426.349C185.867 425.194 181.975 424.393 181.975 424.393C181.975 424.393 165.835 424.517 159.535 424.446C160.079 424.405 160.331 424.112 160.29 423.568ZM161.441 453.314C161.441 453.314 161.385 448.939 161.58 444.272C161.687 442.074 161.795 439.876 161.944 438.223C161.903 437.678 161.882 437.406 162.134 437.114L162.406 437.093C164.604 437.201 167.346 437.267 170.339 437.041C176.096 437.154 181.852 437.267 181.852 437.267C181.852 437.267 186.458 436.645 188.07 436.25C187.839 436.814 187.88 437.359 187.88 437.359C187.88 437.359 187.989 449.667 188.107 454.859C186.433 454.438 184.78 454.289 184.78 454.289C184.78 454.289 168.913 454.392 161.524 454.403C161.482 453.859 161.441 453.314 161.441 453.314ZM192.201 476.446C191.446 477.324 190.147 478.243 188.262 478.659C187.466 478.993 186.126 479.368 185.854 479.388C185.31 479.429 184.765 479.47 184.242 479.784C183.153 479.866 182.085 480.22 180.996 480.303C180.996 480.303 179.908 480.385 178.023 480.801C176.118 480.945 173.669 481.13 171.22 481.315C166.3 481.412 161.129 481.803 161.674 481.762C157.591 482.07 154.387 483.133 153.632 484.011L153.612 483.739C153.258 482.671 152.087 481.665 151.229 481.182C150.937 480.93 150.937 480.93 150.664 480.951C148.487 481.115 146.582 481.259 144.949 481.383C144.133 481.444 143.296 481.234 143.296 481.234C143.003 480.982 142.438 480.751 142.125 480.227C140.348 478.446 139.475 474.132 140.63 471.308C140.841 470.471 141.344 469.886 141.575 469.321C141.827 469.028 142.33 468.443 143.126 468.109C144.425 467.19 146.309 466.774 148.214 466.63C152.276 466.049 156.671 466.265 161.57 465.895C166.197 465.545 170.572 465.489 175.198 465.139C177.375 464.975 179.573 465.083 181.771 465.19C183.969 465.298 186.167 465.406 187.841 465.827C189.515 466.248 190.372 466.73 191.291 468.03C191.605 468.553 191.938 469.349 192.272 470.145C192.606 470.941 192.688 472.03 193.022 472.825C193.145 474.458 192.955 475.568 192.201 476.446ZM189.395 432.044L189.143 432.337C188.871 432.357 188.579 432.106 188.579 432.106C187.741 431.895 186.884 431.413 186.319 431.182C187.931 430.786 189.544 430.391 189.544 430.391C190.088 430.349 190.34 430.057 190.884 430.016C190.088 430.349 189.857 430.914 189.395 432.044ZM245.218 464.504C247.416 464.612 249.321 464.468 250.975 464.617C252.628 464.766 253.506 465.521 254.405 466.548C255.304 467.575 255.971 469.167 256.346 470.507C256.824 473.208 255.627 475.488 252.423 476.551C251.627 476.884 250.559 477.239 250.015 477.28L248.403 477.675C247.335 478.03 246.246 478.112 245.157 478.194C245.157 478.194 244.089 478.549 242.184 478.692C240.279 478.836 237.83 479.021 235.381 479.206C230.461 479.304 225.29 479.695 225.855 479.926C221.794 480.506 218.589 481.569 217.835 482.447C217.752 481.359 216.854 480.332 215.996 479.849C215.703 479.597 215.703 479.597 215.431 479.618C213.506 479.49 211.559 479.089 209.613 478.689C207.939 478.268 206.265 477.847 205.115 477.113C203.965 476.378 203.652 475.855 203.569 474.766C203.487 473.677 204.16 471.711 204.601 470.309C205.084 469.451 206.111 468.553 207.682 467.613C209.274 466.945 211.138 466.257 213.022 465.841C216.791 465.009 220.853 464.429 225.228 464.372C229.31 464.064 233.706 464.279 237.809 464.243C240.843 464.561 243.041 464.669 245.218 464.504ZM212.005 445.117C211.82 442.667 211.927 440.469 211.804 438.837C212.076 438.816 212.076 438.816 212.348 438.795C214.254 438.652 216.703 438.467 219.173 438.554C221.643 438.641 224.385 438.707 226.31 438.836C228.236 438.964 229.597 438.861 229.597 438.861C229.597 438.861 231.209 438.466 232.842 438.342C234.454 437.947 236.087 437.824 235.794 437.572L236.067 437.552C236.087 437.824 236.108 438.096 236.128 438.368C236.252 440.001 236.416 442.178 236.832 444.063C237.269 446.219 237.413 448.124 237.787 449.465C238.162 450.805 238.245 451.893 238.245 451.893C238.245 451.893 238.871 452.941 239.225 454.009C239.852 455.056 240.206 456.124 240.206 456.124C240.206 456.124 240.227 456.397 240.499 456.376C237.675 455.221 233.782 454.42 233.782 454.42C233.782 454.42 218.46 454.482 212.18 454.683C212.139 454.139 212.349 453.302 212.267 452.213C211.83 450.056 211.917 447.586 212.005 445.117ZM206.148 382.06C205.075 385.973 204.377 391.226 204.377 391.226C204.377 391.226 204.707 424.593 204.748 425.137L205.041 425.388C205.898 425.871 206.735 426.082 207.572 426.292C207.634 427.108 207.696 427.925 207.737 428.469C207.213 428.782 206.982 429.347 206.499 430.205C205.282 432.213 204.44 435.561 204.44 435.561C204.44 435.561 204.523 436.649 204.394 438.575C204.518 440.208 204.431 442.678 204.616 445.127C204.78 447.304 204.693 449.774 204.544 451.428C204.395 453.081 204.205 454.19 204.205 454.19L204.498 454.442C205.92 455.156 207.029 455.346 208.139 455.536C207.466 457.502 207.589 459.135 207.944 460.203C207.148 460.537 206.352 460.871 205.556 461.205C203.189 462.478 200.57 464.044 199.143 466.889C199.143 466.889 199.163 467.161 198.891 467.182C198.557 466.386 198.496 465.57 197.91 465.066C197.263 463.747 196.323 462.175 194.88 461.19C194.295 460.686 193.417 459.932 192.58 459.721C194.172 459.054 194.926 458.175 194.048 457.421L194.32 457.4C194.593 457.38 194.593 457.38 194.593 457.38C194.572 457.107 194.494 437.954 194.494 437.954C194.494 437.954 193.226 432.028 192.974 432.321C192.327 431.001 191.7 429.954 190.884 430.016C191.408 429.702 191.931 429.389 191.89 428.845C192.455 429.076 193.189 427.926 193.78 424.87C194.581 420.978 195.007 415.745 195.007 415.745C195.007 415.745 194.863 413.84 194.616 410.574C194.39 407.581 194.082 403.499 194.066 399.668C194.03 395.565 194.014 391.734 194.06 388.72C194.107 385.706 194.507 383.76 194.507 383.76L194.214 383.508C193.336 382.754 192.206 382.291 191.39 382.353C191.349 381.809 190.471 381.054 188.525 380.654C187.96 380.422 187.395 380.191 186.558 379.981C189.3 380.048 191.77 380.135 194.512 380.201L206.569 380.386C206.841 380.365 206.338 380.951 206.148 382.06ZM268.878 310.265C269.063 312.715 269.207 314.62 269.186 314.347C269.495 318.43 270.034 321.947 270.892 322.43C271.184 322.681 271.184 322.681 271.436 322.389C271.456 322.661 271.477 322.933 271.498 323.205C271.498 323.205 271.497 323.205 271.225 323.226L270.974 323.518C270.763 324.355 270.553 325.192 270.614 326.009C269.818 326.343 269.295 326.656 268.792 327.241L268.878 310.265ZM272.863 424.646L273.7 424.856L273.762 425.673L273.695 428.415C273.11 427.912 272.232 427.157 271.626 426.381C270.434 425.103 269.222 423.552 267.99 421.729C267.99 421.729 267.99 421.729 267.969 421.457C268.575 422.232 269.433 422.715 270.29 423.198C270.876 423.701 271.441 423.932 272.005 424.163C272.298 424.415 272.591 424.666 272.863 424.646ZM290.033 391.052C289.468 390.821 288.631 390.611 288.066 390.38C287.501 390.148 286.685 390.21 286.12 389.979C283.357 389.64 280.656 390.118 278.269 391.119C275.881 392.121 273.514 393.394 271.732 395.171C267.876 398.473 265.211 403.054 264.22 408.055C264.22 408.055 264.22 408.055 264.2 407.783C264.159 407.239 264.117 406.694 264.076 406.15L264.015 405.334L263.994 405.062L264.184 403.952C264.733 400.353 266.119 396.964 268.384 394.329C269.662 393.138 270.941 391.946 272.512 391.007C274.084 390.067 275.675 389.399 277.56 388.983C281.057 388.172 284.867 387.884 288.235 388.998C291.583 389.84 294.762 392.064 296.893 394.913C298.085 396.192 299.045 398.035 299.713 399.627C299.692 399.355 299.399 399.103 299.379 398.831C298.105 396.464 296.056 394.703 294.028 393.214C292.585 392.228 291.434 391.494 290.033 391.052ZM300.632 415.432C299.518 418.801 297.274 421.707 294.425 423.839C293.901 424.152 294.173 424.131 293.901 424.152L293.86 423.607L293.819 423.063C293.798 422.791 293.757 422.247 293.736 421.975C293.695 421.43 293.926 420.865 293.906 420.593C294.137 420.028 294.157 420.301 294.661 419.715C295.184 419.402 296.504 418.755 297.803 417.836C299.102 416.916 300.36 415.453 301.074 414.03C301.305 413.466 301.536 412.901 301.515 412.629C301.053 413.758 300.843 414.595 300.632 415.432Z" fill="#F4774C"/>
</svg>
