<svg width="240" height="20" viewBox="0 0 240 20" fill="none" xmlns="http://www.w3.org/2000/svg">
<rect x="36.4558" width="3.03797" height="20" rx="1.51899" fill="#F4774C"/>
<rect x="45.5696" y="4.28564" width="3.03797" height="10.7143" rx="1.51899" fill="#F4774C"/>
<rect x="54.6836" y="6.42847" width="3.03797" height="7.14286" rx="1.51899" fill="#F4774C"/>
<rect x="63.7974" y="0.714355" width="3.03797" height="17.8571" rx="1.51899" fill="#F4774C"/>
<rect x="72.9114" y="4.28564" width="3.03797" height="10.7143" rx="1.51899" fill="#F4774C"/>
<rect x="82.0254" y="6.42847" width="3.03797" height="7.14286" rx="1.51899" fill="#F4774C"/>
<rect x="91.1392" y="6.42847" width="3.03797" height="7.14286" rx="1.51899" fill="#F4774C"/>
<rect x="100.253" y="4.28564" width="3.03797" height="10.7143" rx="1.51899" fill="#F4774C"/>
<rect x="109.367" width="3.03797" height="20" rx="1.51899" fill="#F4774C"/>
<rect x="118.481" y="6.42847" width="3.03797" height="7.14286" rx="1.51899" fill="#F4774C"/>
<rect x="127.595" y="4.28564" width="3.03797" height="10.7143" rx="1.51899" fill="#F4774C"/>
<rect x="136.709" y="6.42847" width="3.03797" height="7.14286" rx="1.51899" fill="#F4774C"/>
<rect x="154.937" y="0.714355" width="3.03797" height="17.8571" rx="1.51899" fill="#F4774C"/>
<rect x="164.051" y="6.42847" width="3.03797" height="7.14286" rx="1.51899" fill="#F4774C"/>
<rect x="173.165" y="7.14282" width="3.03797" height="5.71429" rx="1.51899" fill="#F4774C"/>
<rect x="182.279" y="4.28564" width="3.03797" height="10.7143" rx="1.51899" fill="#F4774C"/>
<rect x="191.392" y="6.42847" width="3.03797" height="7.14286" rx="1.51899" fill="#F4774C"/>
<rect x="200.506" y="2.85718" width="3.03797" height="14.2857" rx="1.51899" fill="#F4774C"/>
<rect x="209.62" y="4.28564" width="3.03797" height="10.7143" rx="1.51899" fill="#F4774C"/>
<rect width="3.03797" height="10.7143" rx="1.51899" transform="matrix(-1 0 0 1 30.3796 5)" fill="#F4774C"/>
<rect x="218.734" y="6.42847" width="3.03797" height="7.14286" rx="1.51899" fill="#F4774C"/>
<rect width="3.03797" height="7.14286" rx="1.51899" transform="matrix(-1 0 0 1 21.2659 7.14282)" fill="#F4774C"/>
<rect x="227.848" y="7.14282" width="3.03797" height="5.71429" rx="1.51899" fill="#F4774C"/>
<rect width="3.03797" height="5.71429" rx="1.51899" transform="matrix(-1 0 0 1 12.1519 7.85718)" fill="#F4774C"/>
<rect x="236.962" y="8.57153" width="3.03797" height="2.85714" rx="1.42857" fill="#F4774C"/>
<rect width="3.03797" height="2.85714" rx="1.42857" transform="matrix(-1 0 0 1 3.03809 9.28564)" fill="#F4774C"/>
<rect x="145.823" y="2.85718" width="3.03797" height="14.2857" rx="1.51899" fill="#F4774C"/>
</svg>
