<svg width="240" height="20" viewBox="0 0 240 20" fill="none" xmlns="http://www.w3.org/2000/svg">

<g clip-path="url(#clip0_4571_95)">
<path class='redial-progress' d="M238.571 8.57129H238.39C237.601 8.57129 236.962 9.21088 236.962 9.99986C236.962 10.7888 237.601 11.4284 238.39 11.4284H238.571C239.36 11.4284 240 10.7888 240 9.99986C240 9.21088 239.36 8.57129 238.571 8.57129Z" fill="#AEAEAE"/>
<path class='redial-progress' d="M230.886 8.66157C230.886 7.82265 230.206 7.14258 229.367 7.14258C228.528 7.14258 227.848 7.82265 227.848 8.66157V11.3379C227.848 12.1768 228.528 12.8569 229.367 12.8569C230.206 12.8569 230.886 12.1768 230.886 11.3379V8.66157Z" fill="#AEAEAE"/>
<path class='redial-progress' d="M221.772 7.9477C221.772 7.10879 221.092 6.42871 220.253 6.42871C219.414 6.42871 218.734 7.10879 218.734 7.9477V12.0526C218.734 12.8915 219.414 13.5716 220.253 13.5716C221.092 13.5716 221.772 12.8915 221.772 12.0526V7.9477Z" fill="#AEAEAE"/>
<path class='redial-progress' d="M212.658 5.80463C212.658 4.96572 211.978 4.28564 211.139 4.28564C210.3 4.28564 209.62 4.96572 209.62 5.80463V13.481C209.62 14.3199 210.3 14.9999 211.139 14.9999C211.978 14.9999 212.658 14.3199 212.658 13.481V5.80463Z" fill="#AEAEAE"/>
<path class='redial-progress' d="M203.544 4.37641C203.544 3.5375 202.864 2.85742 202.025 2.85742C201.186 2.85742 200.506 3.5375 200.506 4.37641V15.6241C200.506 16.463 201.186 17.1431 202.025 17.1431C202.864 17.1431 203.544 16.463 203.544 15.6241V4.37641Z" fill="#AEAEAE"/>
<path class='redial-progress' d="M194.43 7.9477C194.43 7.10879 193.75 6.42871 192.911 6.42871C192.072 6.42871 191.392 7.10879 191.392 7.9477V12.0526C191.392 12.8915 192.072 13.5716 192.911 13.5716C193.75 13.5716 194.43 12.8915 194.43 12.0526V7.9477Z" fill="#AEAEAE"/>
<path class='redial-progress' d="M185.317 5.80463C185.317 4.96572 184.637 4.28564 183.798 4.28564C182.959 4.28564 182.279 4.96572 182.279 5.80463V13.481C182.279 14.3199 182.959 14.9999 183.798 14.9999C184.637 14.9999 185.317 14.3199 185.317 13.481V5.80463Z" fill="#AEAEAE"/>
<path class='redial-progress' d="M176.203 8.66157C176.203 7.82265 175.523 7.14258 174.684 7.14258C173.845 7.14258 173.165 7.82265 173.165 8.66157V11.3379C173.165 12.1768 173.845 12.8569 174.684 12.8569C175.523 12.8569 176.203 12.1768 176.203 11.3379V8.66157Z" fill="#AEAEAE"/>
<path class='redial-progress' d="M167.089 7.9477C167.089 7.10879 166.409 6.42871 165.57 6.42871C164.731 6.42871 164.051 7.10879 164.051 7.9477V12.0526C164.051 12.8915 164.731 13.5716 165.57 13.5716C166.409 13.5716 167.089 12.8915 167.089 12.0526V7.9477Z" fill="#AEAEAE"/>
<path class='redial-progress' d="M157.975 2.23335C157.975 1.39443 157.295 0.714355 156.456 0.714355C155.617 0.714355 154.937 1.39443 154.937 2.23335V17.0525C154.937 17.8914 155.617 18.5715 156.456 18.5715C157.295 18.5715 157.975 17.8914 157.975 17.0525V2.23335Z" fill="#AEAEAE"/>
<path class='redial-progress' d="M148.861 4.37641C148.861 3.5375 148.181 2.85742 147.342 2.85742C146.503 2.85742 145.823 3.5375 145.823 4.37641V15.6241C145.823 16.463 146.503 17.1431 147.342 17.1431C148.181 17.1431 148.861 16.463 148.861 15.6241V4.37641Z" fill="#AEAEAE"/>
<path class='redial-progress' d="M139.747 7.9477C139.747 7.10879 139.067 6.42871 138.228 6.42871C137.389 6.42871 136.709 7.10879 136.709 7.9477V12.0526C136.709 12.8915 137.389 13.5716 138.228 13.5716C139.067 13.5716 139.747 12.8915 139.747 12.0526V7.9477Z" fill="#AEAEAE"/>
<path class='redial-progress' d="M130.633 5.80463C130.633 4.96572 129.953 4.28564 129.114 4.28564C128.275 4.28564 127.595 4.96572 127.595 5.80463V13.481C127.595 14.3199 128.275 14.9999 129.114 14.9999C129.953 14.9999 130.633 14.3199 130.633 13.481V5.80463Z" fill="#AEAEAE"/>
<path class='redial-progress' d="M121.519 7.9477C121.519 7.10879 120.839 6.42871 120 6.42871C119.161 6.42871 118.481 7.10879 118.481 7.9477V12.0526C118.481 12.8915 119.161 13.5716 120 13.5716C120.839 13.5716 121.519 12.8915 121.519 12.0526V7.9477Z" fill="#AEAEAE"/>
<path class='redial-progress' d="M112.405 1.51899C112.405 0.680075 111.725 0 110.886 0C110.047 0 109.367 0.680075 109.367 1.51899V18.481C109.367 19.3199 110.047 20 110.886 20C111.725 20 112.405 19.3199 112.405 18.481V1.51899Z" fill="#AEAEAE"/>
<path class='redial-progress' d="M103.291 5.80463C103.291 4.96572 102.611 4.28564 101.772 4.28564C100.933 4.28564 100.253 4.96572 100.253 5.80463V13.481C100.253 14.3199 100.933 14.9999 101.772 14.9999C102.611 14.9999 103.291 14.3199 103.291 13.481V5.80463Z" fill="#AEAEAE"/>
<path class='redial-progress' d="M94.1771 7.9477C94.1771 7.10879 93.4971 6.42871 92.6581 6.42871C91.8192 6.42871 91.1392 7.10879 91.1392 7.9477V12.0526C91.1392 12.8915 91.8192 13.5716 92.6581 13.5716C93.4971 13.5716 94.1771 12.8915 94.1771 12.0526V7.9477Z" fill="#AEAEAE"/>
<path class='redial-progress' d="M85.0634 7.9477C85.0634 7.10879 84.3833 6.42871 83.5444 6.42871C82.7055 6.42871 82.0254 7.10879 82.0254 7.9477V12.0526C82.0254 12.8915 82.7055 13.5716 83.5444 13.5716C84.3833 13.5716 85.0634 12.8915 85.0634 12.0526V7.9477Z" fill="#AEAEAE"/>
<path class='redial-progress' d="M75.9496 5.80463C75.9496 4.96572 75.2695 4.28564 74.4306 4.28564C73.5917 4.28564 72.9116 4.96572 72.9116 5.80463V13.481C72.9116 14.3199 73.5917 14.9999 74.4306 14.9999C75.2695 14.9999 75.9496 14.3199 75.9496 13.481V5.80463Z" fill="#AEAEAE"/>
<path class='redial-progress' d="M66.8353 2.23335C66.8353 1.39443 66.1553 0.714355 65.3163 0.714355C64.4774 0.714355 63.7974 1.39443 63.7974 2.23335V17.0525C63.7974 17.8914 64.4774 18.5715 65.3163 18.5715C66.1553 18.5715 66.8353 17.8914 66.8353 17.0525V2.23335Z" fill="#AEAEAE"/>
<path class='redial-progress' d="M57.7216 7.9477C57.7216 7.10879 57.0415 6.42871 56.2026 6.42871C55.3637 6.42871 54.6836 7.10879 54.6836 7.9477V12.0526C54.6836 12.8915 55.3637 13.5716 56.2026 13.5716C57.0415 13.5716 57.7216 12.8915 57.7216 12.0526V7.9477Z" fill="#AEAEAE"/>
<path class='redial-progress' d="M48.6078 5.80463C48.6078 4.96572 47.9277 4.28564 47.0888 4.28564C46.2499 4.28564 45.5698 4.96572 45.5698 5.80463V13.481C45.5698 14.3199 46.2499 14.9999 47.0888 14.9999C47.9277 14.9999 48.6078 14.3199 48.6078 13.481V5.80463Z" fill="#AEAEAE"/>
<path class='redial-progress' d="M39.4935 1.51899C39.4935 0.680075 38.8135 0 37.9746 0C37.1356 0 36.4556 0.680075 36.4556 1.51899V18.481C36.4556 19.3199 37.1356 20 37.9746 20C38.8135 20 39.4935 19.3199 39.4935 18.481V1.51899Z" fill="#AEAEAE"/>
<path class='redial-progress' d="M27.3414 6.51899C27.3414 5.68008 28.0215 5 28.8604 5C29.6993 5 30.3794 5.68008 30.3794 6.51899V14.1953C30.3794 15.0342 29.6993 15.7143 28.8604 15.7143C28.0215 15.7143 27.3414 15.0342 27.3414 14.1953V6.51899Z" fill="#AEAEAE"/>
<path class='redial-progress' d="M18.2281 8.66157C18.2281 7.82265 18.9082 7.14258 19.7471 7.14258C20.586 7.14258 21.2661 7.82265 21.2661 8.66157V12.7664C21.2661 13.6054 20.586 14.2854 19.7471 14.2854C18.9082 14.2854 18.2281 13.6054 18.2281 12.7664V8.66157Z" fill="#AEAEAE"/>
<path class='redial-progress' d="M9.11389 9.37641C9.11389 8.5375 9.79396 7.85742 10.6329 7.85742C11.4718 7.85742 12.1519 8.5375 12.1519 9.37641V12.0527C12.1519 12.8916 11.4718 13.5717 10.6329 13.5717C9.79396 13.5717 9.11389 12.8916 9.11389 12.0527V9.37641Z" fill="#AEAEAE"/>
<path class='redial-progress' d="M1.42869 9.28564H1.60952C2.39849 9.28564 3.03809 9.92524 3.03809 10.7142C3.03809 11.5032 2.39849 12.1428 1.60952 12.1428H1.42869C0.639709 12.1428 0.000115871 11.5032 0.000115871 10.7142C0.000115871 9.92524 0.639709 9.28564 1.42869 9.28564Z" fill="#AEAEAE"/>
</g>
<defs>
<clipPath id="clip0_4571_95">
<rect width="240" height="20" fill="red"/>
</clipPath>
</defs>
</svg>
